<?xml version="1.0" encoding="UTF-8" standalone="no"?>
<svg
   width="2289.167"
   height="2822.902"
   version="1.1"
   id="svg2350"
   sodipodi:docname="monty-big.svg"
   inkscape:version="1.2 (dc2aedaf03, 2022-05-15)"
   xmlns:inkscape="http://www.inkscape.org/namespaces/inkscape"
   xmlns:sodipodi="http://sodipodi.sourceforge.net/DTD/sodipodi-0.dtd"
   xmlns="http://www.w3.org/2000/svg"
   xmlns:svg="http://www.w3.org/2000/svg">
  <sodipodi:namedview
     id="namedview2352"
     pagecolor="#ffffff"
     bordercolor="#000000"
     borderopacity="0.25"
     inkscape:showpageshadow="2"
     inkscape:pageopacity="0.0"
     inkscape:pagecheckerboard="0"
     inkscape:deskcolor="#d1d1d1"
     showgrid="false"
     inkscape:zoom="4.6987106"
     inkscape:cx="997.29488"
     inkscape:cy="380.3171"
     inkscape:window-width="1920"
     inkscape:window-height="1009"
     inkscape:window-x="-8"
     inkscape:window-y="-8"
     inkscape:window-maximized="1"
     inkscape:current-layer="g2348" />
  <defs
     id="defs1954">
    <clipPath
       id="a"
       clipPathUnits="userSpaceOnUse">
      <path
         d="M0 2340.345h1897.847V0H0Z"
         id="path1783" />
    </clipPath>
    <clipPath
       id="b"
       clipPathUnits="userSpaceOnUse">
      <path
         d="M685.603 1768.86h228.718v-152.73H685.603Z"
         id="path1786" />
    </clipPath>
    <clipPath
       id="c"
       clipPathUnits="userSpaceOnUse">
      <path
         d="M770.65 1852.58h23.49v-41.34h-23.49z"
         id="path1789" />
    </clipPath>
    <clipPath
       id="d"
       clipPathUnits="userSpaceOnUse">
      <path
         d="M934.871 1842.29h17.418v-42.24h-17.418z"
         id="path1792" />
    </clipPath>
    <clipPath
       id="e"
       clipPathUnits="userSpaceOnUse">
      <path
         d="M585.523 2155.01h362.449v-424.17H585.523Z"
         id="path1795" />
    </clipPath>
    <clipPath
       id="f"
       clipPathUnits="userSpaceOnUse">
      <path
         d="M836.508 1890.35H937.63v-69.79H836.508Z"
         id="path1798" />
    </clipPath>
    <clipPath
       id="g"
       clipPathUnits="userSpaceOnUse">
      <path
         d="M833.564 1756.71h80.757v-31.03h-80.757z"
         id="path1801" />
    </clipPath>
    <clipPath
       id="h"
       clipPathUnits="userSpaceOnUse">
      <path
         d="M576.432 1934.05h61.663v-83.94h-61.663z"
         id="path1804" />
    </clipPath>
    <clipPath
       id="i"
       clipPathUnits="userSpaceOnUse">
      <path
         d="M841.007 1955.82h95.149v-80.04h-95.149z"
         id="path1807" />
    </clipPath>
    <clipPath
       id="j"
       clipPathUnits="userSpaceOnUse">
      <path
         d="M821.403 1782.38h97.183v-27.55h-97.183z"
         id="path1810" />
    </clipPath>
    <clipPath
       id="k"
       clipPathUnits="userSpaceOnUse">
      <path
         d="M881.485 1983.45h60.745v-22.5h-60.745z"
         id="path1813" />
    </clipPath>
    <clipPath
       id="l"
       clipPathUnits="userSpaceOnUse">
      <path
         d="M753.591 1980.94h67.812v-25.12h-67.812z"
         id="path1816" />
    </clipPath>
    <clipPath
       id="m"
       clipPathUnits="userSpaceOnUse">
      <path
         d="M548.143 2228.76h402.804v-236.77H548.143Z"
         id="path1819" />
    </clipPath>
    <clipPath
       id="n"
       clipPathUnits="userSpaceOnUse">
      <path
         d="M1176.63 1655.25h493.69v-419.48h-493.69z"
         id="path1822" />
    </clipPath>
    <clipPath
       id="o"
       clipPathUnits="userSpaceOnUse">
      <path
         d="M1500.91 1655.25h169.41v-220.14h-169.41z"
         id="path1825" />
    </clipPath>
    <clipPath
       id="p"
       clipPathUnits="userSpaceOnUse">
      <path
         d="M309.498 1354.04h326.594v-227.49H309.498Z"
         id="path1828" />
    </clipPath>
    <clipPath
       id="q"
       clipPathUnits="userSpaceOnUse">
      <path
         d="M512.091 1639.73h676.729v-545.3H512.091Z"
         id="path1831" />
    </clipPath>
    <clipPath
       id="r"
       clipPathUnits="userSpaceOnUse">
      <path
         d="M1093.48 1485.65h95.34v-200.87h-95.34z"
         id="path1834" />
    </clipPath>
    <clipPath
       id="s"
       clipPathUnits="userSpaceOnUse">
      <path
         d="M512.091 1428.26h175.684v-210.11H512.091Z"
         id="path1837" />
    </clipPath>
    <clipPath
       id="t"
       clipPathUnits="userSpaceOnUse">
      <path
         d="M518.68 1735.24h635.88v-408.53H518.68Z"
         id="path1840" />
    </clipPath>
    <clipPath
       id="u"
       clipPathUnits="userSpaceOnUse">
      <path
         d="M1122.61 1476.53h165.54v-182.01h-165.54z"
         id="path1843" />
    </clipPath>
    <clipPath
       id="v"
       clipPathUnits="userSpaceOnUse">
      <path
         d="M1116.65 1425.81h168.37v-199.88h-168.37z"
         id="path1846" />
    </clipPath>
    <clipPath
       id="w"
       clipPathUnits="userSpaceOnUse">
      <path
         d="M463.659 1419.17h197.676v-122.94H463.659Z"
         id="path1849" />
    </clipPath>
    <clipPath
       id="x"
       clipPathUnits="userSpaceOnUse">
      <path
         d="M474.396 1358.77h207.265v-144.55H474.396Z"
         id="path1852" />
    </clipPath>
    <clipPath
       id="y"
       clipPathUnits="userSpaceOnUse">
      <path
         d="M674.352 1426.31h563.398V513.294H674.352Z"
         id="path1855" />
    </clipPath>
    <clipPath
       id="z"
       clipPathUnits="userSpaceOnUse">
      <path
         d="M917.279 863.132h241.031V407.433H917.279Z"
         id="path1858" />
    </clipPath>
    <clipPath
       id="A"
       clipPathUnits="userSpaceOnUse">
      <path
         d="M641.087 1225.39h373.883V355.637H641.087Z"
         id="path1861" />
    </clipPath>
    <clipPath
       id="B"
       clipPathUnits="userSpaceOnUse">
      <path
         d="M890.126 1351.48h228.924v-210.49H890.126Z"
         id="path1864" />
    </clipPath>
    <clipPath
       id="C"
       clipPathUnits="userSpaceOnUse">
      <path
         d="M1042.05 1532.92h48.6v-125.27h-48.6z"
         id="path1867" />
    </clipPath>
    <clipPath
       id="D"
       clipPathUnits="userSpaceOnUse">
      <path
         d="M948.781 1616.13h139.139v-214.47H948.781Z"
         id="path1870" />
    </clipPath>
    <clipPath
       id="E"
       clipPathUnits="userSpaceOnUse">
      <path
         d="M632.612 1642.12h160.915V1368.6H632.612Z"
         id="path1873" />
    </clipPath>
    <clipPath
       id="F"
       clipPathUnits="userSpaceOnUse">
      <path
         d="M792.704 1466.46h44.9v-107.27h-44.9z"
         id="path1876" />
    </clipPath>
    <clipPath
       id="G"
       clipPathUnits="userSpaceOnUse">
      <path
         d="M975.949 373.369h371.801V204.925H975.949Z"
         id="path1879" />
    </clipPath>
    <clipPath
       id="H"
       clipPathUnits="userSpaceOnUse">
      <path
         d="M969.575 253.64h380.895v-61.521H969.575Z"
         id="path1882" />
    </clipPath>
    <clipPath
       id="I"
       clipPathUnits="userSpaceOnUse">
      <path
         d="M546.899 317.758h261.794V119.222H546.899Z"
         id="path1885" />
    </clipPath>
    <clipPath
       id="J"
       clipPathUnits="userSpaceOnUse">
      <path
         d="M546.899 211.592h263.819V111.584H546.899Z"
         id="path1888" />
    </clipPath>
    <clipPath
       id="K"
       clipPathUnits="userSpaceOnUse">
      <path
         d="M1021.08 473.135h163.86v-92.148h-163.86z"
         id="path1891" />
    </clipPath>
    <clipPath
       id="L"
       clipPathUnits="userSpaceOnUse">
      <path
         d="M944.772 452.173h237.318V291.531H944.772Z"
         id="path1894" />
    </clipPath>
    <clipPath
       id="M"
       clipPathUnits="userSpaceOnUse">
      <path
         d="M607.03 440.742H774.4V273.897H607.03Z"
         id="path1897" />
    </clipPath>
    <clipPath
       id="N"
       clipPathUnits="userSpaceOnUse">
      <path
         d="M618.773 388.079h217.889V226.102H618.773Z"
         id="path1900" />
    </clipPath>
    <clipPath
       id="O"
       clipPathUnits="userSpaceOnUse">
      <path
         d="M155.927 1574.25h261.4v-245.38h-261.4z"
         id="path1903" />
    </clipPath>
    <clipPath
       id="P"
       clipPathUnits="userSpaceOnUse">
      <path
         d="M343.575 1576.67h75.945v-161.84h-75.945Z"
         id="path1906" />
    </clipPath>
    <clipPath
       id="Q"
       clipPathUnits="userSpaceOnUse">
      <path
         d="M167.712 1569.02h81.628v-238.1h-81.628z"
         id="path1909" />
    </clipPath>
    <clipPath
       id="R"
       clipPathUnits="userSpaceOnUse">
      <path
         d="M1544.18 2048.03h63.38v-323.42h-63.38z"
         id="path1912" />
    </clipPath>
    <clipPath
       id="S"
       clipPathUnits="userSpaceOnUse">
      <path
         d="M1544.18 2048.03h63.38v-36.05h-63.38z"
         id="path1915" />
    </clipPath>
    <clipPath
       id="T"
       clipPathUnits="userSpaceOnUse">
      <path
         d="M1526.98 1756.73h101.48v-216.22h-101.48z"
         id="path1918" />
    </clipPath>
    <clipPath
       id="U"
       clipPathUnits="userSpaceOnUse">
      <path
         d="M1523.29 1726.37h60.13v-187.54h-60.13z"
         id="path1921" />
    </clipPath>
    <clipPath
       id="V"
       clipPathUnits="userSpaceOnUse">
      <path
         d="M1526.98 1614.43h101.48v-216.22h-101.48z"
         id="path1924" />
    </clipPath>
    <clipPath
       id="W"
       clipPathUnits="userSpaceOnUse">
      <path
         d="M1523.29 1616.11h60.13v-187.54h-60.13z"
         id="path1927" />
    </clipPath>
    <clipPath
       id="X"
       clipPathUnits="userSpaceOnUse">
      <path
         d="M1674.29 2112.02h133.07v-121.94h-133.07z"
         id="path1930" />
    </clipPath>
    <clipPath
       id="Y"
       clipPathUnits="userSpaceOnUse">
      <path
         d="M1655.46 2112.97h145.17v-124.55h-145.17z"
         id="path1933" />
    </clipPath>
    <clipPath
       id="Z"
       clipPathUnits="userSpaceOnUse">
      <path
         d="M1431.31 2102.95h134.14v-47.45h-134.14z"
         id="path1936" />
    </clipPath>
    <clipPath
       id="aa"
       clipPathUnits="userSpaceOnUse">
      <path
         d="M1492.47 2126.18h166.8v-91.67h-166.8z"
         id="path1939" />
    </clipPath>
    <clipPath
       id="ab"
       clipPathUnits="userSpaceOnUse">
      <path
         d="M1383.46 2148.55h83.4V2009.9h-83.4z"
         id="path1942" />
    </clipPath>
    <clipPath
       id="ac"
       clipPathUnits="userSpaceOnUse">
      <path
         d="M1497.77 1680.97h160.2V1470.5h-160.2z"
         id="path1945" />
    </clipPath>
    <clipPath
       id="ad"
       clipPathUnits="userSpaceOnUse">
      <path
         d="M1478.46 1652.78h50.75v-123.39h-50.75z"
         id="path1948" />
    </clipPath>
    <clipPath
       id="ae"
       clipPathUnits="userSpaceOnUse">
      <path
         d="M1478.46 1638.92h50.73V1529.4h-50.73z"
         id="path1951" />
    </clipPath>
  </defs>
  <g
     clip-path="url(#a)"
     transform="matrix(1.33333 0 0 -1.33333 -120.648 2971.68)"
     id="g2348">
    <path
       d="M0 0c9.845-39.067 10.973-78.915 11.021-118.859l217.698-156.952c-4.59 78.467-4.926 141.52-.001 193.893z"
       style="fill:#f2bbad;fill-opacity:1;fill-rule:nonzero;stroke:none"
       transform="translate(685.603 1768.856)"
       id="path1956" />
    <g
       clip-path="url(#b)"
       opacity=".3"
       id="g1960">
      <path
         d="M0 0c-48.977-8.992-90.76 25.504-125.914 54.69-26.732 22.195-51.703 46.627-72.983 73.99-1.302 7.557-2.866 15.091-4.757 22.596L25.064 69.358c-1.826-19.421-2.926-40.32-3.357-62.919C14.667 3.462 7.271 1.335 0 0"
         style="fill:#ad5842;fill-opacity:1;fill-rule:nonzero;stroke:none"
         transform="translate(889.257 1617.58)"
         id="path1958" />
    </g>
    <path
       d="M0 0c52.443-76.605 85.946-117.96 76.835-158.594-5.664-35.708 3.94-49.745 13.791-70.923 26.104-58.857-3.94-110.326-25.611-183.22-17.731-62.797-32.753-62.798-55.492-65.014-94.483-3.694-112.46 22.163-151.041 46.626-52.29 32.178-72.977 56.065-80.118 101.132-26.351-10.097-85.946 14.529-91.283 72.237-5.746 72.073 58.037 96.453 84.715 26.268-39.54 69.781-39.335 127.692-15.761 178.623C-181.727-9.418-99.731 7.292 0 0"
       style="fill:#ffd5c7;fill-opacity:1;fill-rule:nonzero;stroke:none"
       transform="translate(873.604 2153.36)"
       id="path1962" />
    <g
       clip-path="url(#c)"
       opacity=".3"
       id="g1966">
      <path
         d="M0 0c2.785 1.134 6.196 1.351 9.062.444 5.447-1.723 3.906-4.659 1.395-8.259-3.236-4.638-6.379-16.195-5.744-15.768-2.184-6.599.338-5.643-2.986-11.804-2.021-3.747-4.605-6.194-9.021-4.275C-14.648-35.711-9.328-4.386 0 0"
         style="fill:#ad5842;fill-opacity:1;fill-rule:nonzero;stroke:none"
         transform="translate(781.395 1851.57)"
         id="path1964" />
    </g>
    <g
       clip-path="url(#d)"
       opacity=".3"
       id="g1970">
      <path
         d="M0 0c-.464 1.637-.864 3.288-1.015 4.996-.29 3.278.482 6.763 4.395 5.341 2.107-.766 6.064-3.661 7.206-5.412 4.918-7.54 4.659-18.193 1.043-26.231-1.356-3.014-3.058-6.183-5.393-8.553-4.35-4.414-9.379.532-9.339 5.388C-3.062-19.396.5.49 0 0"
         style="fill:#ad5842;fill-opacity:1;fill-rule:nonzero;stroke:none"
         transform="translate(937.974 1831.625)"
         id="path1968" />
    </g>
    <g
       clip-path="url(#e)"
       opacity=".3"
       id="g1974">
      <path
         d="M0 0c20.183 4.932 28.918 23.622 28.055 42.985-.908 20.394-9.437 40.529-20.398 57.491-2.628 4.067-5.557 8.237-8.774 12.254-25.278 57.756-22.42 107.109-2.004 151.217 62.238 43.447 144.234 60.157 243.965 52.865 36.989-54.03 64.53-90.517 74.368-121.592-11.192 17.702-22.724 35.297-36.814 50.831-15.135 16.688-33.915 31.044-56.859 34.012-26.364 3.411-53.521-5.871-77.532-15.796-11.549-4.774-22.701-10.336-34.06-15.518-9.385-4.281-19.081-7.846-28.668-11.639-17.446-6.902-35.961-14.512-48.92-28.619-13.943-15.177-18.674-37.982-13.462-57.798 3.62-13.755 11.768-25.809 18.949-37.892 7.833-13.178 15.405-26.387 20.06-41.076 4.748-14.98 7.782-31.247 8.011-46.971.225-15.52-2.577-30.86-3.819-46.287-1.131-14.038-.367-27.607 3.479-41.203 3.756-13.28 9.728-25.891 16.861-37.675 1.085-1.793 2.247-3.538 3.385-5.299-42.435 28.099-60.124 51.566-66.615 92.529-16.327-6.256-45.407.832-66.445 20.845C-32.56.128-15.495-3.787 0 0"
         style="fill:#ad5842;fill-opacity:1;fill-rule:nonzero;stroke:none"
         transform="translate(632.76 1836.547)"
         id="path1972" />
    </g>
    <g
       clip-path="url(#f)"
       opacity=".3"
       id="g1978">
      <path
         d="M0 0c-17.573-23.149-59.123-16.254-94.565 0-20.188-36.612 24.626-69.791 49.253-69.791C-19.373-69.791 8.209-17.567 0 0"
         style="fill:#ad5842;fill-opacity:1;fill-rule:nonzero;stroke:none"
         transform="translate(936.156 1890.35)"
         id="path1976" />
    </g>
    <g
       clip-path="url(#g)"
       opacity=".3"
       id="g1982">
      <path
         d="M0 0c-2.791-41.865-73.058-40.88-80.757 0C-62.387-15.515-20.85-18.88 0 0"
         style="fill:#ad5842;fill-opacity:1;fill-rule:nonzero;stroke:none"
         transform="translate(914.32 1756.711)"
         id="path1980" />
    </g>
    <g
       clip-path="url(#h)"
       opacity=".3"
       id="g1986">
      <path
         d="M0 0c-5.971 8.403-18.552 20.193-21.179 30.537-3.283 52.043 39.402 60.088 58.611 4.268C47.651-5.197 29.552-24.134 0 0"
         style="fill:#ad5842;fill-opacity:1;fill-rule:nonzero;stroke:none"
         transform="translate(597.79 1860.798)"
         id="path1984" />
    </g>
    <g
       clip-path="url(#i)"
       opacity=".45"
       id="g1990">
      <path
         d="M0 0c-13.991-22.373-50.32-16.239-94.565 0-3.448 32.737 8.701 65.474 27.843 65.474C-62.551 37.821-6.29 12.477 0 0"
         style="fill:#fff1e6;fill-opacity:1;fill-rule:nonzero;stroke:none"
         transform="translate(936.156 1890.35)"
         id="path1988" />
    </g>
    <g
       clip-path="url(#j)"
       opacity=".45"
       id="g1994">
      <path
         d="M0 0c.542-30.73-74.101-31.029-97.179 4.984C-64.027-13.649-22.941-21.141 0 0"
         style="fill:#fff1e6;fill-opacity:1;fill-rule:nonzero;stroke:none"
         transform="translate(918.583 1777.397)"
         id="path1992" />
    </g>
    <path
       d="M0 0c3.866-40.449.821-80.282 49.745-100.475 28.567-10.836 24.807-26.253 7.389-49.745-13.782-16.87-33.752-15.954-54.671-12.314 14.799 28.633-18.105 9.808-33.099 11.997-7.96 1.162-10.872 13.906 1.085 30.36-4.816-11.85-2.735-24.398 2.449-25.984 12.841-3.928 44.722 18.945 37.938-9.477 16.694-2.772 33.656-5.132 45.312 18.716 9.335 21.458 1.642 23.641-12.313 31.029C-11.985-82.355-9.194-36.447 0 0"
       style="fill:#ad5842;fill-opacity:1;fill-rule:nonzero;stroke:none"
       transform="translate(871.142 2010.526)"
       id="path1996" />
    <path
       d="M0 0c-13.134 32.178-52.552 27.745-60.745 0C-52.552-24.955-9.358-19.865 0 0"
       style="fill:#fff;fill-opacity:1;fill-rule:nonzero;stroke:none"
       transform="translate(942.23 1960.946)"
       id="path1998" />
    <path
       d="M0 0c2.561-7.821 8.589-12.707 15.938-15.072.256-.019.532-.019.788-.019 11.249 0 20.371 9.122 20.371 20.371 0 7.21-3.743 13.534-9.397 17.159C15.485 21.573 4.019 13.574 0 0"
       style="fill:#a05a2c;fill-opacity:1;fill-rule:nonzero;stroke:none"
       transform="translate(881.485 1960.94)"
       id="path2000" />
    <path
       d="M0 0c-.679-5.509 3.584-10.506 11.545-10.416 9.407-.001 14.06 6.296 14.06 14.06 0 6.554-3.71 12.793-8.457 13.814C8.717 16.86 2.774 9.369 0 0"
       style="fill:#28170b;fill-opacity:1;fill-rule:nonzero;stroke:none"
       transform="translate(883.291 1964.935)"
       id="path2002" />
    <path
       d="M0 0a6.054 6.054 0 1 1 12.108 0A6.054 6.054 0 0 1 0 0"
       style="fill:#fff;fill-opacity:1;fill-rule:nonzero;stroke:none"
       transform="translate(901.668 1970.667)"
       id="path2004" />
    <g
       clip-path="url(#k)"
       opacity=".25"
       id="g2008">
      <path
         d="M0 0c-13.134 32.178-52.552 27.745-60.745 0C-47.447 15.776-24.79 23.969 0 0"
         style="fill:#1d1d1b;fill-opacity:1;fill-rule:nonzero;stroke:none"
         transform="translate(942.23 1960.946)"
         id="path2006" />
    </g>
    <path
       d="M0 0c-8.209 42.686-63.536 28.895-60.745 0C-52.552 24.79-14.447 32.342 0 0"
       style="fill:#28160c;fill-opacity:1;fill-rule:nonzero;stroke:none"
       transform="translate(942.23 1960.946)"
       id="path2010" />
    <path
       d="M0 0c-14.662 35.922-58.666 30.973-67.812 0C-58.665-27.858-10.446-22.177 0 0"
       style="fill:#fff;fill-opacity:1;fill-rule:nonzero;stroke:none"
       transform="translate(821.403 1955.824)"
       id="path2012" />
    <path
       d="M0 0c2.859-8.731 9.589-14.186 17.793-16.825.285-.022.593-.022.879-.022 12.558 0 22.741 10.183 22.741 22.741 0 8.05-4.179 15.109-10.491 19.156C17.286 24.082 4.487 15.153 0 0"
       style="fill:#a05a2c;fill-opacity:1;fill-rule:nonzero;stroke:none"
       transform="translate(753.591 1955.817)"
       id="path2014" />
    <path
       d="M0 0c-.758-6.15 4.001-11.728 12.888-11.628 10.502-.001 15.696 7.029 15.696 15.696 0 7.317-4.142 14.281-9.441 15.421C9.732 18.821 3.097 10.459 0 0"
       style="fill:#28170b;fill-opacity:1;fill-rule:nonzero;stroke:none"
       transform="translate(755.607 1960.278)"
       id="path2016" />
    <path
       d="M0 0a6.758 6.758 0 0 1 6.758-6.758 6.758 6.758 0 1 1 0 13.516A6.758 6.758 0 0 1 0 0"
       style="fill:#fff;fill-opacity:1;fill-rule:nonzero;stroke:none"
       transform="translate(776.123 1966.677)"
       id="path2018" />
    <g
       clip-path="url(#l)"
       opacity=".25"
       id="g2022">
      <path
         d="M0 0c-14.662 35.922-58.666 30.973-67.812 0C-52.967 17.611-27.675 26.758 0 0"
         style="fill:#1d1d1b;fill-opacity:1;fill-rule:nonzero;stroke:none"
         transform="translate(821.403 1955.824)"
         id="path2020" />
    </g>
    <path
       d="M0 0c-9.164 47.651-70.928 32.256-67.812 0C-58.666 27.674-16.128 36.105 0 0"
       style="fill:#28160c;fill-opacity:1;fill-rule:nonzero;stroke:none"
       transform="translate(821.403 1955.824)"
       id="path2024" />
    <path
       d="M0 0c-9.194 59.76 49.514 61.35 64.521-3.94 8.866-44.656-27.417-48.76-43.342-26.597 18.716-13.104 46.749-9.007 37.432 27.582-.233.705-.47 1.388-.706 2.074C31.083 16.172 18.461 12.038 11-14.448c.762 25.43 18.627 35.046 44.219 20.76C33.693 59.486.156 42.616 0 0"
       style="fill:#ad5842;fill-opacity:1;fill-rule:nonzero;stroke:none"
       transform="translate(576.61 1891.334)"
       id="path2026" />
    <g
       style="fill:#666"
       id="g2030">
      <path
         d="M0 0c-42.571 22.447-65.673-6.127-78.276 0-8.569 5.022-1.637 26.475 12.296 35.441 17.545 7.898 37.775 3.277 55.282-1.689C-1.405 28.537 3.654 4.366 0 0"
         style="fill:#666;fill-opacity:1;fill-rule:nonzero;stroke:none"
         transform="translate(951.466 2015.862)"
         id="path2028" />
    </g>
    <g
       style="fill:#666"
       id="g2034">
      <path
         d="M0 0c27.582-4.269 33.328-43.999-4.925-32.178-31.067 5.746-55.984-3.756-84.715-23.313C-80.774-17.567-58.775 4.64 0 0"
         style="fill:#666;fill-opacity:1;fill-rule:nonzero;stroke:none"
         transform="translate(803.337 2050.914)"
         id="path2032" />
    </g>
    <path
       d="M0 0c-40.3-13.113-62.818-16.905-133.321 7.492 7.581-26.958 32.947-59.097 84.911-58.784C-8.164-52.444-11.718-32.754 0 0"
       style="fill:#fff;fill-opacity:1;fill-rule:nonzero;stroke:none"
       transform="translate(929.866 1816.367)"
       id="path2036" />
    <path
       d="M0 0c39.08-17.956 86.125-24.49 124.508-9.249-11.978-23.958-.871-42.763-44.399-42.45C30.173-51.237 9.175-24.587 0 0m-17.902-4.314c2.888-.834 2.906 4.421 4.24 11.244A186.763 186.763 0 0 1-10.6 5.261c9.579-29.77 41.003-63.199 91.366-63.199 53.901 0 37.193 30.189 52.5 52.64 1.24.627 2.462 1.293 3.678 1.971-.03-6.659-.868-11.536 2.041-11.269 3.646.335 9.842 8.432 8.997 17.641-.844 9.21-8.409 16.046-12.055 15.711-3.437-.315-.426-6.73.639-15.178-40.821-23.052-107.09-13.691-148.621 9.626 2.642 8.029 6.752 13.703 3.453 14.657-3.517 1.017-12.237-4.268-14.805-13.152-2.568-8.885 1.987-18.006 5.505-19.023"
       style="fill:#a04c3c;fill-opacity:1;fill-rule:nonzero;stroke:none"
       transform="translate(800.72 1820.56)"
       id="path2038" />
    <path
       d="M0 0c.71-19.812 79.925-18.726 80.757 0C61.056-12.978 24.772-12.151 0 0"
       style="fill:#ad5842;fill-opacity:1;fill-rule:nonzero;stroke:none"
       transform="translate(833.564 1756.71)"
       id="path2040" />
    <g
       style="fill:gray"
       id="g2044">
      <path
         d="M0 0c-8.209 14.119-10.836 38.089 0 65.67 0-17.074 7.88-28.566 17.731-42.029 1.97 62.715 41.043 68.626 84.714 101.789-2.955-12.053 1.314-33.492 1.314-33.492 34.374 35.981 78.033 49.374 128.056 47.283l-33.265-30.208c107.531 27.996 150.091-30.032 220.426-119.519-25.817-.334-49.117 6.189-69.61 20.357 22.84-19.121 31.247-38.697 34.148-58.446 0 0-30.672 32.386-42.219 33.777l-30.877 41.087c-1.823 2.263-3.855 4.361-5.984 6.377-32.224 17.021-56.291 4.789-84.212.846 2.912 2.886 5.683 12.97 19.701 17.239-33.741 1.988-51.266-21.179-72.087-39.402-2.839 6.475-2.019 14.283-2.019 14.283s-7.88-3.94-27.581-27.089c-.948 5.461-1.488 10.554-1.66 15.304-5.031-3.987-11.445-14.28-15.086-19.08C67.312-5.91 20.357-47.939 56.867-128.385c20.953-45.756 47.549-59.103 12.087-121.818 3.941 36.118.401 49.907-9.194 82.744-17.074 48.796-64.357 52.618-81.25 9.133C-52.865-117.134-34.181-12.914 0 0"
         style="fill:gray;fill-opacity:1;fill-rule:nonzero;stroke:none"
         transform="translate(585.64 2089.33)"
         id="path2042" />
    </g>
    <g
       style="fill:#999"
       id="g2050">
      <g
         clip-path="url(#m)"
         opacity=".35"
         style="fill:#999"
         id="g2048">
        <path
           d="M0 0c3.359 9.714 8.741 18.198 15.562 25.902-45.03-18.26-74.268-44.35-91.044-58.767-4.566 7.88-4.14 19.815-1.62 28.479-40.98-22.158-54.024-48.922-57.59-84.815.422-1.684-20.031 11.826-20.175 10.878-1.16-7.657 3.834-13.293 7.66-19.371-39.472-21.962-46.669-56.823-54.316-94.426-.081 42.835 15.482 89.026 37.497 97.344-8.209 14.12-10.836 38.089 0 65.671 0-17.075 7.881-28.567 17.731-42.03 1.97 62.716 41.043 68.626 84.715 101.79-2.956-12.053 1.313-33.492 1.313-33.492 34.375 35.98 78.033 49.373 128.057 47.283L34.524 14.237c77.951 20.295 121.76-4.624 166.757-53.955C135.84-1.804 95.806 14.165 0 0"
           style="fill:#999;fill-opacity:1;fill-rule:nonzero;stroke:none"
           transform="translate(749.666 2184.106)"
           id="path2046" />
      </g>
    </g>
    <g
       style="fill:#666"
       id="g2054">
      <path
         d="M0 0c-11.448 10.982-16.559 22.419-13.762 32.671.206.926-5.467-3.39-7.064-5.757 3.902 47.946 15.947 80.31 92.624 89.675-.632 10.103 4.478 23.974 12.566 34.087-.034-7.409.064-12.668 6.803-21.41 3.847 20.909 22.584 45 54.91 73.233-5.267-14.479-4.559-25.158-2.109-36.695 13.22 16.614 34.269 36.69 97.323 39.507-12.438-6.711-20.104-17.661-21.437-25.745 35.645-.311 72.268-11.018 129.571-51.285-14.78 2.486-44.021-2.926-43.377-3.245 12.012-5.947 22.013-15.794 30.42-26.076 7.045-8.617 13.632-18.376 17.519-28.974-8.626 8.704-29.31 28.696-38.329 29.783l-30.877 41.087c-1.823 2.264-3.855 4.361-5.984 6.377-32.224 17.021-56.29 4.789-84.212.846 2.912 2.886 5.684 12.97 19.701 17.239-33.741 1.988-51.266-21.179-72.086-39.402-2.84 6.475-2.02 14.283-2.02 14.283s-7.88-3.94-27.581-27.089c-.948 5.461-1.487 10.554-1.659 15.304-5.032-3.987-11.445-14.28-15.087-19.08C41.675 108.677-5.279 66.648 31.23-13.798c20.953-45.756 47.55-59.103 12.088-121.818 3.94 36.118.4 49.907-9.195 82.744C17.049-4.076-30.234-.254-47.127-43.739c-1.973 2.591-3.748 5.432-5.334 8.483C-51.965-18.219-29.456 2.952 0 0"
         style="fill:#666;fill-opacity:1;fill-rule:nonzero;stroke:none"
         transform="translate(611.277 1974.743)"
         id="path2052" />
    </g>
    <path
       d="M0 0c15.432-12.477 45.641-27.087 96.864-8.208 104.883 36.362 196.769 112.9 282.381 208.832 50.566 65.013 47.939 179.608 16.417 201.607L257.099 229.518c-81.888-40.81-157.627-65.097-227.548-73.742C-63.044 220.323-138.893 17.402 0 0"
       style="fill:#ffd5c7;fill-opacity:1;fill-rule:nonzero;stroke:none"
       transform="translate(1251.867 1253.021)"
       id="path2056" />
    <g
       clip-path="url(#n)"
       opacity=".3"
       id="g2060">
      <path
         d="M0 0c-9.366-11.529-20.715-21.999-26.318-35.808-9.879-18.375-19.651-123.744 65.163-109.226 27.948 6.87 52.731 22.183 77.922 35.502 24.856 13.141 51.078 23.614 74.324 39.669 19.63 13.558 36.423 31.303 52.724 48.916 4.535 10.998 10.952 28.322 8.471 33.19-3.271 6.415-9.348 10.614-14.964 14.814-8.091 6.051-14.928 13.079-18.787 22.608-2.321 5.731-3.554 11.862-3.505 17.968 4.16 2.002 8.325 4.02 12.517 6.109l138.564 172.713c15.941-11.125 24.485-45.932 22.505-86.029l-.215-3.751c-2.496-38.243-14.506-80.712-38.707-111.828-85.613-95.931-177.499-172.469-282.381-208.831-51.223-18.879-81.432-4.269-96.864 8.208C-166.948-138.561-91.219 58.205 0 0"
         style="fill:#ad5842;fill-opacity:1;fill-rule:nonzero;stroke:none"
         transform="translate(1281.419 1408.797)"
         id="path2058" />
    </g>
    <g
       clip-path="url(#o)"
       opacity=".3"
       id="g2064">
      <path
         d="M0 0c-5.32-2.507-10.963-4.399-16.205-6.003-15.858-4.852-32.103-7.379-48.702-5.711-16.985 1.707-36.38 7.35-47.832 20.783-5.519 6.474-9.118 14.154-11.783 22.204 2.681 1.301 5.358 2.587 8.057 3.932L22.098 207.918c15.941-11.125 24.485-45.932 22.505-86.029l-.215-3.751C41.892 79.895 29.882 37.426 5.681 6.311 3.792 4.194 1.896 2.098 0 0"
         style="fill:#ad5842;fill-opacity:1;fill-rule:nonzero;stroke:none"
         transform="translate(1625.431 1447.334)"
         id="path2062" />
    </g>
    <path
       d="M0 0c-34.281-22.641-54.057-76.722-21.498-121.32C-44.73-70.109-28.616-32.722 3.601.458Z"
       style="fill:#ad5842;fill-opacity:1;fill-rule:nonzero;stroke:none"
       transform="translate(1281.419 1408.797)"
       id="path2066" />
    <path
       d="M0 0c8.865 103.51 192.231-1.827 135.938-95.621-35.789-59.45-67.641-90.685-108.684-89.097-42.293 3.283-120.968 74.306-207.19 113.7l104.744 94.474C-58.818 10.349-36.729.72 0 0"
       style="fill:#ffd5c7;fill-opacity:1;fill-rule:nonzero;stroke:none"
       transform="translate(489.435 1311.323)"
       id="path2068" />
    <g
       clip-path="url(#p)"
       opacity=".3"
       id="g2072">
      <path
         d="M0 0c8.495-6.8 18.554-12.648 31.373-16.818 2.012-8.669 4.117-17.319 6.237-25.963 3.455-14.088 6.929-28.171 9.606-42.43 2.695-14.353 5.339-28.746 9.426-42.783 5.013-17.219 11.443-37.213 25.249-49.525 11.371-10.14 27.947-12.786 42.525-9.544 30.135 6.701 52.465 35.402 62.251 63.228 4.936 14.036 7.251 29.594 4.073 44.289-3.758 17.37-15.115 32.676-29.025 43.373-14.349 11.037-31.228 17.088-48.843 20.512-7.788 1.513-15.849 2.751-23.803 2.37-4.532-.217-9.505-.961-13.048-3.863C91.794 75.535 266.224-27.282 211.13-119.077c-35.789-59.449-67.64-90.685-108.684-89.097-42.293 3.283-120.968 74.306-207.191 113.7z"
         style="fill:#ad5842;fill-opacity:1;fill-rule:nonzero;stroke:none"
         transform="translate(414.243 1334.779)"
         id="path2070" />
    </g>
    <path
       d="M0 0c50.201-11.647 73.568-44.807 73.063-97.104C66.163-45.005 44.946-13.647-7.419.279z"
       style="fill:#ad5842;fill-opacity:1;fill-rule:nonzero;stroke:none"
       transform="translate(489.435 1311.323)"
       id="path2074" />
    <path
       d="M0 0c-63.27 44.532-60.326 93.456-85.287 110.859-42.791 15.9-97.192 25.282-116.575 43.318l-2.896 28.135c-41.789-18.892-28.858-26.74-30.553-44.721-1.407-14.932-31.721-24.871 1.28-48.404-10.974-3.968-51.717-49.589-77.28-79.789-55.702-49.91-60.003-88.152-73.432-155.639 0 0 111.311-101.46 118.207-108.355 6.895-6.896 76.834-203.906 76.834-203.906l433.424 205.877 48.267 164.504C228.945-4.72 141.275 51.099 51.947 63.197c20.248 24.455-3.818 28.534-6.673 39.542-5.797 22.349-14.481 34.764-27.787 31.27l-3.284-24.135C13.52 64.664 11.577 20.234 0 0"
       style="fill:#6e9945;fill-opacity:1;fill-rule:nonzero;stroke:none"
       transform="translate(896.834 1552.929)"
       id="path2076" />
    <g
       clip-path="url(#q)"
       opacity=".15"
       id="g2080">
      <path
         d="M0 0s111.311-101.46 118.207-108.356c6.895-6.895 76.835-203.905 76.835-203.905l195.007 92.629c-30.447 9.16-58.87 24.13-84.969 42.198-28.249 19.556-52.61 42.871-76.874 67.019-11.508 11.453-25.859 22.098-32.145 37.588-.283.698.55 1.427 1.212 1.212 14.455-4.699 26.711-17.727 42.4-17.788-7.096 5.598-15.677 9.148-22.194 15.506-7.056 6.884-10.588 16.383-12.925 25.759-2.148 8.617-2.885 16.725-2.739 25.579.166 10.138-1.129 18.55-11.633 22.595-.684.263-.982 1.073-.435 1.646 8.674 9.076 10.517 22.637 10.896 34.668a158.407 158.407 0 0 1-2.186 31.459c-1.755 10.258-4.38 20.469-8.134 30.184-3.217 8.326-7.914 19.262-16.453 23.539 1.36-11.376 7.013-21.689 8.986-32.943 2.007-11.449 3.676-23.432 3.315-35.068-.69-22.33-14.093-39.511-22.359-59.365-.4-.96-1.934-.939-1.935.263-.019 23.273-1.171 46.37-7.258 68.956-4.248 15.764-13.528 33.882-29.828 39.673 9.188-17.725 18.707-37.367 15.304-57.805-1.734-10.411-6.831-18.468-12.258-27.269-3.673-5.954-5.769-12.966-8.268-19.459C104.954-26.165 54.834 74.864 3.82 19.429 2.597 13.215 1.345 6.76 0 0m137.907 154.097c-11.618 10.885-27.308 17.36-42.571 21.292-.979.252-2.422.62-4.053.958a1560.097 1560.097 0 0 1-17.851-20.708c-.855-.767-1.669-1.524-2.5-2.285 9.287 2.567 19.053 3.4 29.073 1.907 23.694-3.531 45.277-18.781 58.56-38.424 2.325-3.439 4.35-7.051 6.115-10.775a168.1 168.1 0 0 1-5.398 15.708c-4.83 12.078-11.842 23.396-21.375 32.327m312.45-345.083 178.108 84.602L676.732 58.12a448.288 448.288 0 0 1-14.586 18.248c-5.897-.282-14.135 3.739-19.786 2.283-12.386-3.189-17.434-2.689-31.017-1.108-11.743 1.367-12.912 7.962-18.002 17.654-4.082 7.774-9.927 7.984-14.429 15.579-3.818 6.442-12.869 7.367-17.527 13.214 3.273-9.44 4.917-32.38 5.597-42.586-5.944 29.156-29.126 87.119-71.866 106.471 5.33-10.666 28.194-52.127 30.124-63.71 2.485-14.921 3.1-24.734-1.226-45.622-8.77 39.157-19.571 54.112-48.499 77.908 34.467-63.953 17.851-207.962-25.158-347.437M341.096 152.09c7.944-3.835 16.356-6.359 24.899-8.424-6.034 3.272-11.669 7.274-17.081 11.482-6.455 5.02-12.431 10.6-18.817 15.702-5.47 4.369-11.098 8.73-15.331 14.373-4.507 6.007-7.069 13.59-10.324 20.319-2.966 6.134-5.682 12.34-6.871 19.032-5.566-9.598-6.634-22.118-7.954-32.804-1.749-14.147-4.198-28.088-3.151-42.407.051-.695-.667-1.049-1.247-.95-16.415 2.806-32.932 11.941-46.199 22.436a.95.95 0 0 0-.33-.051c-10.505.522-18.868 10.092-27.065 15.612-6.288 4.233-12.895 7.842-19.026 12.357-6.296 4.638-12.377 9.56-18.592 14.303-9.006 6.872-18.395 13.165-27.431 19.97-2.717-1.933-6.129-4.852-10.023-8.488 11.443-13.794 25.24-25.754 39.34-36.741 25.309-19.719 52.082-37.038 82.279-48.325 6.867-2.567 13.578-4.853 20.113-8.189 6.375-3.253 13.375-7.396 20.717-7.695-1.471 11.504-.421 23.205.821 34.696.731 6.771 3.474 12.894 11.349 10.869 10.957-2.819 19.817-12.198 29.924-17.077m61.167 20.378a1.61 1.61 0 0 1-.009-.034c1.689 3.956 3.327 7.933 4.608 12.034.229.733 1.087.932 1.647.434 6.028-5.356 9.483-12.784 13.319-19.746 3.695 3.834 19.827 32.58 24.837 41.491-.022.41-.062.81-.061 1.232-2.267.39-4.535.76-6.805 1.094-3.386-8.599-7.31-16.981-11.435-25.264-.394-.79-1.57-.531-1.801.235-4.603 15.277-11.756 29.473-18.894 43.677-.241-6.224-.588-12.489-1.424-18.671 1.119-12.228-1.012-24.653-3.982-36.482"
         style="fill:#000;fill-opacity:1;fill-rule:nonzero;stroke:none"
         transform="translate(512.09 1406.688)"
         id="path2078" />
    </g>
    <g
       clip-path="url(#r)"
       opacity=".15"
       id="g2084">
      <path
         d="M0 0c-5.955 23.955-8.37 48.718-4.03 73.165 2.879 16.219 8.554 32.194 15.737 46.981 10.077 20.744 25.361 42.102 45.961 52.689 5.329-.052 11.91-2.827 16.852-2.591a448.461 448.461 0 0 0 14.586-18.248L40.838-12.508 8.163-28.029C5.16-18.769 2.35-9.452 0 0"
         style="fill:#000;fill-opacity:1;fill-rule:nonzero;stroke:none"
         transform="translate(1099.718 1312.812)"
         id="path2082" />
    </g>
    <g
       clip-path="url(#s)"
       opacity=".15"
       id="g2088">
      <path
         d="M0 0c14.481-2.543 28.522-7.537 41.982-13.362 23.705-10.258 46.287-23.923 63.882-43.077 18.866-20.541 30.007-46.443 32.341-74.208 2.267-26.962-4.97-53.085-21.96-74.287a117.892 117.892 0 0 0-3.076-3.674c-15.222 41.106-29.15 77.294-32.036 80.18C74.237-121.533-37.074-20.073-37.074-20.073c1.257 6.319 2.432 12.363 3.578 18.201C-23.227 2.669-10.814 1.898 0 0"
         style="fill:#000;fill-opacity:1;fill-rule:nonzero;stroke:none"
         transform="translate(549.165 1426.761)"
         id="path2086" />
    </g>
    <g
       clip-path="url(#t)"
       opacity=".18"
       id="g2092">
      <path
         d="M0 0c1.172.598 2.315 1.21 3.418 1.812 28.081 26.389 69.125-14.983 99.612-20.854-11.72 65.062 18.143 47.244 14.083 64.336-3.163 13.512-6.988 28.29-15.939 39.075l.005-.003c10.038 3.431 22.916 3.966 50.333-24.478-15.801 41.979-46.068 60.895-90.571 57.12l-6.95-6.815C18.783 74.475 8.952 43.263 0 0m151.469 195.286c29.851-29.116 70.289-56.184 127.161-80.074.968 23.853 3.748 48.588 12.352 76.162 6.633-.265 23.744-29.285 49.808-51.487 9.135-10.054 20.663-21.488 34.226-24.559-59.992 43.909-57.614 91.466-82.149 108.571-42.791 15.9-97.192 25.283-116.575 43.319l-2.896 28.134c-41.79-18.891-28.858-26.739-30.553-44.72-1.407-14.932-31.721-24.872 1.28-48.404-.621-.225-1.359-.613-2.164-1.096a143.799 143.799 0 0 1 9.51-5.846m18.774-156.595c3.013 69.313-38.781 94.919-37.678 94.548 25.551-8.603 50.722-20.817 70.31-39.692 18.563-17.888 31.805-40.256 48.42-59.816-1.351 15.565-7.42 30.575-14.685 44.253-7.521 14.161-16.708 28.094-28.413 39.146-12.442 11.748-85.282 61.231-82.201 70.437-16.387-15.961-39.194-41.679-56.358-61.836 10.573 5.024 23.221 4.03 34.178 6.147 28.749 1.361 54.274-35.229 66.427-93.187m222.114 184.223c-.467-30.925-1.526-61.481-5.853-84.182 4.045 5.425 7.314 11.369 9.316 18.153 2.269 7.685 3.082 15.433 2.315 23.418-.81 8.426-2.585 16.705-1.838 25.209.072.808 1.047 1.353 1.682.696 12.997-13.445 15.412-31.686 22.854-48.068 2.478 7.667.836 16.611-.569 24.262-1.49 8.111-3.601 16.142-4.564 24.343-1.018 8.678 1.173 20.4-.448 30.214-5.075 8.392-11.476 12.227-19.611 10.09zm40.782-281.693c-4.709-18.307-11.141-36.122-15.935-54.397 61.51 119.051 77.599 143.883 43.01 253.674 20.965-16.409 37.774-37.375 52.029-59.732-3.606 26.441-28.93 74.799-28.127 74.587 27.445-7.255 44.413-32.983 59.638-55.397-.903 3.813-1.784 7.543-1.05 11.598.089.496.744.859 1.211.688 5.328-1.944 9.457-5.074 13.116-9.38 4.066-4.784 7.732-11.782 13.948-14.012 3.117-1.117 6.522-1.153 9.33-3.13 2.121-1.494 3.67-3.922 5.075-6.061 3.634-5.529 7.185-12.221 14.745-11.485 6.301.614 12.182 1.387 18.566.702 5.857-.628 11.596-1.989 17.181-3.835-55.935 58.123-124.797 97.294-195.272 109.548 3.154-77.672 12.147-157.112-7.465-233.368"
         style="fill:#fff;fill-opacity:1;fill-rule:nonzero;stroke:none"
         transform="translate(518.68 1439.888)"
         id="path2090" />
    </g>
    <path
       d="m0 0-13.318 3.894c23.407-19.097 53.107-56.363 72.675-107.447C51.706-66.012 39.46-29.616 0 0m68.744-52.468c14.329-58.174 17.42-100.249 12.517-130.875l10.951-13.298c7.801 44.059-1.151 92.405-23.468 144.173m-399.499-66.985c9.127-35.161 7.293-61.22 0-82.744 12.885-38.278 14.778-56.987 13.298-79.297h7.039c-.254 8.493-.364 16.922-.976 25.573 9.383-11.311 25.949-19.091 45.16-25.573-19.119 11.287-36.224 22.782-46.058 35.03a146.875 146.875 0 0 1-3.176 17.53c32.787 16.487 47.747 87.772 22.637 136.078 18.668-53.86-1.283-119.334-25.644-125.671a144.929 144.929 0 0 1-5.385 13.867c7.881 14.056 10.836 57.626-6.895 85.207m-85.646 70.911c55.355 15.035 91.31-23.628 105.983-88.806-.001 63.946-52.992 110.49-100.081 94.237zm324.521-3.927c10.613 22.92 18.47 39.238 14.444 77.982l19.048-45.967 15.976 30.442-4.829.7-11.147-23.919c-1.476 19.008-11.37 37.023-22.988 54.835 3.94-37.678-1.141-60.828-10.504-94.073m-247.887 84.938c50.645-35.824 80.674-58.588 144.466-89.042 1.395 31.994-.992 51.573 10.169 79.461 1.003-31.302 29.45-58.516 82.088-86.028-58.899 40.093-71.574 56.722-82.745 97.848-11.246-24.02-14.508-48.795-14.447-81.431-40.387 15.925-114.02 63.946-132.982 83.401z"
       style="fill:#3a5919;fill-opacity:1;fill-rule:nonzero;stroke:none"
       transform="translate(996.022 1605.438)"
       id="path2094" />
    <path
       d="M0 0c-68.954 19.071-126.862-105.539-29.551-155.776-26.793-42.729-54.597-28.295-82.252-1.97-31.318 29.81-68.954 8.865-45.806 157.746 30.747 96.132 76.213 69.815 120.023 42.399C-22.94 33.233 24.134 44.19 0 0"
       style="fill:#6e9945;fill-opacity:1;fill-rule:nonzero;stroke:none"
       transform="translate(1281.419 1408.797)"
       id="path2096" />
    <g
       clip-path="url(#u)"
       opacity=".18"
       id="g2100">
      <path
         d="M0 0c-12.066 6.682-27.573 8.779-41.103 6.599-16.94-2.729-31.18-12.374-41.056-26.256-10.337-14.532-15.898-32.127-19.456-49.429-2.437-11.848-4.123-24.148-2.422-36.219 1.404-9.97 5.15-19.395 7.111-29.232-10.807 21.386-15.977 45.349-14.119 69.348.635 8.199 1.743 16.617 4.823 24.287 2.342 5.833 4.86 11.593 7.148 17.448 1.141 2.924 9.707 20.637 1.678 20.563-3.261-.03-6.428-3.14-8.621-5.196-4.38-4.105-8.177-8.854-11.849-13.586-5.767-7.43-10.708-15.611-16.571-22.962-3.372 25.897 14.959 46.21 29.763 65.437.556.722-.364 1.639-1.112 1.448-12.615-3.221-22.417-12.659-30.434-22.471-7.16-8.762-13.495-18.334-19.43-28.012.382 2.606.779 5.251 1.201 7.97 30.747 96.132 76.213 69.815 120.023 42.399 12.948-8.103 51.201-.508 43.236-29.159C6.396-4.138 3.263-1.807 0 0"
         style="fill:#fff;fill-opacity:1;fill-rule:nonzero;stroke:none"
         transform="translate(1278.258 1429.06)"
         id="path2098" />
    </g>
    <g
       clip-path="url(#v)"
       opacity=".15"
       id="g2104">
      <path
         d="M0 0c3.52-11.395 9.184-22.027 14.43-32.703C50.72-81.94 10.661-6.091 37.452 31.06c1.755-75.847 9.985-96.254 36.215-113.273 6.727-3.868 12.358-2.101 11.782 6.311-.85 12.427-11.003 23.191-16.982 33.481-15.184 26.128-12.803 58.176-.695 84.956 8.911 19.707 19.19 28.24 39.999 36.852 19.317 7.994 42.2 11.224 56.548-2.745-.961-2.281-2.145-4.737-3.601-7.403C91.764 88.31 33.856-36.299 131.167-86.537c-26.793-42.729-54.597-28.295-82.253-1.97C22.213-63.09-9.074-74.546-3.371 13.797-2.493 9.146-1.401 4.534 0 0"
         style="fill:#000;fill-opacity:1;fill-rule:nonzero;stroke:none"
         transform="translate(1120.7 1339.558)"
         id="path2102" />
    </g>
    <path
       d="M0 0c11.82 64.828 166.821-13.975 135.938-95.621 25.383-7.366 35.861 14.516 45.911 26.077 25.053 28.817 8.34 105.643-89.692 162.939C19.475 130.95-5.59 86.975-11.217 55.963-14.594 37.356-48.268 26.904 0 0"
       style="fill:#6e9945;fill-opacity:1;fill-rule:nonzero;stroke:none"
       transform="translate(489.435 1311.323)"
       id="path2106" />
    <g
       clip-path="url(#w)"
       opacity=".18"
       id="g2110">
      <path
         d="M0 0c5.627 31.012 30.691 74.987 103.374 37.432 30.098-17.591 52.52-37.023 68.432-56.342a167.023 167.023 0 0 0 4.428-10.164c5.106-12.894 9.625-28.348 4.878-41.985-6.689 4.536-10.405 13.522-13.856 20.455-3.61 7.252-7.101 14.294-12.134 20.686C142.473-13.854 125.628.138 107.213 9.123c-4.549 2.219-9.367 4.283-14.303 5.454-2.529.599-6.985 1.686-8.841-.916-2.132-2.99 1.312-7.805 3.197-9.955 4.139-4.726 9.978-7.695 15.104-11.18 3.366-2.289 6.819-4.839 9.061-8.308.469-.727 2.341-3.561 1.922-4.389-.594-1.169-2.243-.234-3.339.137-8.169 2.764-15.262 8.946-21.904 14.218C75.043 4.557 61.069 14.212 43.592 14.048c-29.839-.28-53.153-30.671-48.416-59.374C-28.004-25.893-2.893-15.937 0 0"
         style="fill:#fff;fill-opacity:1;fill-rule:nonzero;stroke:none"
         transform="translate(478.218 1367.286)"
         id="path2108" />
    </g>
    <g
       clip-path="url(#x)"
       opacity=".15"
       id="g2114">
      <path
         d="M0 0c-6.351 3.54-11.27 6.792-15.039 9.818.19 3.597.862 7.165 2.173 10.618 4.244 11.181 14.862 20.143 25.922 24.217 23.444 8.635 50.9-4.412 70.622-16.545 9.617-5.918 19.308-12.585 27.248-20.67 5.314-5.411 9.884-11.492 15.057-17.031 2.13-2.281 6.549-8.232 10.135-8.355 2.892-.099 3.503 3.795 3.76 5.943.476 3.978-.914 7.747-2.961 11.105-4.541 7.448-16.186 15.458-15.544 25.021 34.92-10.545 36.661-56.498 51.474-83.906.332-.614 1.072-.571 1.547-.199 8.366 6.539 8.215 20.088 8.235 29.662.029 15.082-2.066 29.931-5.995 44.361 20.194-35.121 19.498-67.154 5.216-83.583-10.051-11.561-20.529-33.443-45.912-26.077C166.821-13.975 11.82 64.828 0 0"
         style="fill:#000;fill-opacity:1;fill-rule:nonzero;stroke:none"
         transform="translate(489.435 1311.323)"
         id="path2112" />
    </g>
    <path
       d="M0 0c-116.593 20.968-227.904-3.886-298.499-45.195.908-87.925-41.918-183.573-84.058-279.099-19.356-29.551-.016-32.014 4.597-47.282l-44.655-169.43c-47.118-14.283-15.104-51.222-18.387-116.236-7.6-86.685-11.985-240.353 7.881-344.112l158.922-61.729c22.178 97.847 47.925 198.421 101.788 320.471.593-86.635 27.736-177.538 55.821-268.592 55.48-.024 113.62 17.246 174.026 49.253 40.404 146.477 66.319 299.129 90.624 452.468 0 22.164-23.435 46.863-34.805 66.327C119.024-276.439 80.216-128.014 0 0"
       style="fill:#4b6ec6;fill-opacity:1;fill-rule:nonzero;stroke:none"
       transform="translate(1089.69 1418.72)"
       id="path2116" />
    <g
       clip-path="url(#y)"
       opacity=".18"
       id="g2120">
      <path
         d="M0 0c6.106-26.723 21.895-51.237 39.816-71.773-4.958 19.708-10.051 41.054-2.309 60.617 5.838 14.75 17.972 26.559 29.99 36.428 25.338 20.806 60.584 39.499 64.778 75.625 2.169 18.682-2.069 37.227-4.534 55.821a340.48 340.48 0 0 0-1.159-4.244c-3.056-10.899-6.739-21.726-11.455-32.027-8.006-17.488-25.734-27.684-42.712-34.899-17.84-7.58-37.506-12.581-53.403-24.067C10.789 55.541 4.004 47.59.794 37.857-3.242 25.622-2.844 12.445 0 0m136.463 561.305c8.81 1.411 17.681 2.535 26.54 3.607 26.261 3.176 52.316 8.063 78.82 8.871 24.135.735 49.39-1.568 71.402-12.225 19.722-9.547 37.297-23.724 53.09-38.754 17.201-16.37 32.781-34.624 46.008-54.353 12.377-18.461 20.909-38.913 31.717-58.269 11.578-20.737 24.061-41.234 32.759-63.409 4.471-11.4 12.763-31.838-2.701-38.799-6.557-2.951-14.39-2.644-21.388-2.071-8.666.711-17.225 2.325-25.809 3.654-25.129 3.893-52.597 2.264-74.958-10.646 13.754 1.201 27.662 1.343 41.435.846 18.635-.673 38.199-2.311 55.78-8.96 12.228-4.624 25.066-13.218 24.558-27.831-.321-9.232-5.438-13.994-14.621-14.021-5.154-.015-10.292 1.005-15.356 1.838-7.715 1.269-15.284 1.519-23.088.832-19.03-1.674-37.403-7.898-56.224-10.971-15.569-2.543-31.284-4.233-46.666-7.652 10.986.805 22.038.73 33.044.372 15.381-.502 30.833-1.172 46.175-2.4 9.059-.726 18.851-2.005 25.288-9.121 8.491-9.386 10.174-24.218 12.517-36.11 3.07-15.582 8.979-30.876 16.546-44.858 3.36-6.208 7.959-10.524 13.526-14.72 4.386-3.307 9.283-6.459 12.786-10.752 4.885-5.986 3.029-14.004-2.934-18.447-7.666-5.711-18.035-7.078-26.836-10.268-12.986-4.708-25.307-13.448-36.572-21.279-11.963-8.316-24.498-17.724-32.911-29.857 32.675-6.338 67.019 2.515 99.159 8.139.575.1.985-.257 1.149-.687 6.867 1.298 13.975 1.511 20.856.514 4.8-.696 13.627-2.275 15.19-7.977 1.854-6.765-8.688-11.605-13.177-13.701-10.402-4.857-21.184-6.998-32.343-9.307-10.105-2.092-23.285-3.995-30.02-12.681-2.126-2.741-4.434-6.545-2.197-9.87 1.741-2.588 5.321-3.867 8.131-4.806 12.63-4.225 30.219-2.631 37.628-15.658 10.033-17.643 3.027-42.349-3.47-59.945-6.248-16.92-14.609-32.503-28.169-44.611-14.112-12.601-31.024-22.723-42.902-37.668-5.496-6.915-9.586-15.359-8.236-24.402 1.685-11.279 10.165-20.523 18.999-27.019 8.458-6.217 18.35-10.312 26.509-16.932 8.782-7.125 13.122-16.985 15.598-27.798 3.181-13.894 8.841-27.269 19.101-37.48a30.261 30.261 0 0 1 5.211-4.18c32.185 129.034 54.611 262.227 75.805 395.944 0 22.163-23.434 46.863-34.805 66.327 5.769 166.716-33.038 315.142-113.255 443.155-105.214 18.922-206.116.523-276.689-33.604"
         style="fill:#fff;fill-opacity:1;fill-rule:nonzero;stroke:none"
         transform="translate(676.537 823.811)"
         id="path2118" />
    </g>
    <g
       clip-path="url(#z)"
       opacity=".15"
       id="g2124">
      <path
         d="M0 0c5.567 10.193 10.609 20.662 15.82 31.038 10.505 20.919 21.731 42.571 39.1 58.702 8.203 7.618 17.426 12.607 27.451 17.353 10.256 4.856 20.567 9.605 31.089 13.861 11.401 4.613 23.07 8.775 35.084 11.484 9.672 2.181 20.048 3.617 29.859 1.481-2.568-1.201-5.143-2.386-7.716-3.576-10.787-4.986-21.624-10.133-31.415-16.926-8.024-5.567-54.569-24.884-58.157-34.227-3.231-8.417 60.83-5.607 66.441-12.624 0-44.537-62.515-25.334-111.602-110.312-9.699-22.291-14.348-47.484-11.562-71.735 1.197-10.417 3.167-22.568 10.012-30.87 4.172-5.06 11.778-9.849 11.321-17.073-.433-6.851-4.883-11.573-8.818-16.765-6.845-9.031-10.954-20.725-12.225-31.934-.427-3.764-.273-17.933 6.242-16.929 3.212.495 6.564 3.62 9.452 4.99 7.091 3.365 14.862 5.551 22.145 8.512 15.001 6.101 29.873 12.811 45.635 16.75 16.636 4.159 33.717 4.44 50.012-1.34 13.731-4.87 26.061-13.023 36.868-22.703a169.214 169.214 0 0 0 6.596-6.268c-3.616-14.141-7.315-28.248-11.186-42.281-73.594-26.902-142.922-50.933-174.026-49.253C-9.296-237.267-34.209-154.02-38.684-74.057c-.398 8.1-.625 15.931-.716 22.003 2.16 2.842 3.049 3.301 7.603 10.872C-25.438-30.61-5.921-10.842 0 0"
         style="fill:#000;fill-opacity:1;fill-rule:nonzero;stroke:none"
         transform="translate(956.679 728.162)"
         id="path2122" />
    </g>
    <g
       clip-path="url(#A)"
       opacity=".15"
       id="g2128">
      <path
         d="m0 0 44.656 169.429c-4.614 15.269-23.954 17.731-4.597 47.283 19.358 43.882 38.848 87.787 54.189 130.96-.042-7.875.073-15.752.498-23.633.647-11.995 1.875-24.054 4.617-35.769 2.131-9.109 5.146-19.342 11.123-26.758 6.829-8.474 18.108-13.398 27.904-17.44 10.538-4.349 22.3-9.022 33.737-10.133 14.983-1.456 29.794 3.789 44.014 7.723 8.093 2.239 16.319 4.339 24.728 4.879 7.073.454 14.162.718 21.238 1.139 28.219 1.68 57.849 4.406 85.786-1.518-40.27-11.043-199.12-42.017-208.782-44.75-5.541-1.567-11.261-2.529-16.474-5.043-9.609-4.635-18.354-11.634-26.041-18.956-7.422-7.07-15.235-15.609-18.376-25.598-6.742-21.438 19.896-23.14 34.255-21.828 21.778 1.99 153.045 44.617 185.28 41.269-9.289-.953-127.1-78.85-136.802-87.166-5.203 11.221-24.953 41.294-25.309 40.289-5.587-15.802-5.873-32.658-9.875-48.821-4.631-18.708-16.109-32.566-33.674-40.677C66.049 22.855 30.284 24.263 12.432-1.501c-13.47-19.44-11.081-45.61-7.038-67.623 4.711-25.643 14.337-50.413 17.246-76.365 3.295-29.403-.729-139.269 2.374-150.083 5.375-18.741 15.795-37.564 16.566-57.333.664-17.021 1.198-23.892-7.673-37.741-3.746-5.848-19.009-7.994-24.284-12.579-30.553-20.667 29.949-9.585 59.003-14.078 37.64-6.508 64.78-43.392 87.399-71.834a3869.283 3869.283 0 0 1-7.608-32.941l-158.922 61.73c-19.866 103.759-15.481 257.427-7.882 344.112C-15.104-51.223-47.118-14.283 0 0"
         style="fill:#000;fill-opacity:1;fill-rule:nonzero;stroke:none"
         transform="translate(667.074 877.715)"
         id="path2126" />
    </g>
    <path
       d="M0 0c40.774-203.561-58.057-312.026-35.069-704.724"
       style="fill:none;stroke:#0e337c;stroke-width:7.88;stroke-linecap:round;stroke-linejoin:round;stroke-miterlimit:10;stroke-dasharray:23.641;stroke-dashoffset:0;stroke-opacity:1"
       transform="translate(715.281 1112.906)"
       id="path2130" />
    <path
       d="M0 0c-8.249-85.09 17.289-208.098 47.75-302.327"
       style="fill:none;stroke:#0e337c;stroke-width:7.88;stroke-linecap:round;stroke-linejoin:round;stroke-miterlimit:10;stroke-dasharray:23.641;stroke-dashoffset:0;stroke-opacity:1"
       transform="translate(951.502 717.245)"
       id="path2132" />
    <path
       d="M0 0c-44.827-.462-72.357-5.769-101.531-21.345zm-79.952 253.924c12.658.367 25.43.416 38.337.154 23.005-139.361 11.592-146.05-41.687-207.293 17.001 58.48 10.987 116.993 3.35 207.139M-437.161 82.987c126.685 39.08 131.839 39.66 139.844 135.535 70.225 19.771 137.552 32.16 207.939 35.061C-78.575 95.316-64.635 54.967-186.956-118.62c48.706 55.665 77.887 98.711 94.608 139.552l-.09-.232c60.421 31.807 119.77 46.563 179.547 56.613-74.129 0-129.241-18.501-176.039-47.584l-.009-.026a.771.771 0 0 0 .009.026c67.104 82.603 76.284 69.361 53.795 224.22 29.815-.85 60.434-3.443 92.23-7.863.92-28.851 9.543-32.768 41.614-65.249l.164 5.089c-29.011 31.002-35.972 35.534-36.836 59.485a974.46 974.46 0 0 0 36.417-5.966v11.886c-222.368 28.011-294.599 13.337-507.291-60.879l-2.324-8.817c36.882 13.239 72.286 24.944 106.946 34.91-5.166-101.212-47.109-98.688-131.293-127.288zM94.44 307.58l-1.202 8.139c-179.063 35.696-271.658 11.069-485.744-63.303l-3.147-11.943C-218.315 304.132-83.184 346.368 94.44 307.58"
       style="fill:#0e337c;fill-opacity:1;fill-rule:nonzero;stroke:none"
       transform="translate(1104.235 794.728)"
       id="path2134" />
    <path
       d="M0 0c-78.504 23.685-201.965 7.659-247.942-28.995-2.187-48.609 2.105-93.568 7.397-137.964 56.961-25.137 121.654-32.369 162.041-32.369 37.761 6.301 72.214 34.906 106.555 69.85C25.71-83.811 16.262-40.687 0 0"
       style="fill:#5a85db;fill-opacity:1;fill-rule:nonzero;stroke:none"
       transform="translate(1091.003 1340.319)"
       id="path2136" />
    <g
       clip-path="url(#B)"
       opacity=".18"
       id="g2140">
      <path
         d="M0 0c9.647 26.129 6.546 55.699-6.242 80.187-14.022 26.851-37.794 43.768-65.229 55.235-15.636 6.536-31.899 11.464-48.305 15.655-7.036 1.797-14.41 4.173-21.86 5.724 57.801 18.87 141.988 23.449 200.877 5.682 16.262-40.688 25.71-83.811 28.051-129.478C52.951-1.939 18.498-30.544-19.262-36.845c-2.673 0-5.459.034-8.335.101C-15.383-27.202-5.543-15.013 0 0"
         style="fill:#fff;fill-opacity:1;fill-rule:nonzero;stroke:none"
         transform="translate(1031.762 1177.836)"
         id="path2138" />
    </g>
    <path
       d="M0 0c-50.566 13.65-174.683 8.396-216.712-21.484-17.731-17.752-7.444-75.978 0-122.147 15.741-11.49 100.476-32.088 140.535-30.208 50.104 14.119 88.2 47.283 97.192 62.829C25.612-94.378 15.761-5.723 0 0Z"
       style="fill:none;stroke:#0e337c;stroke-width:7.88;stroke-linecap:round;stroke-linejoin:round;stroke-miterlimit:4;stroke-dasharray:24.162,24.162;stroke-dashoffset:0;stroke-opacity:1"
       transform="translate(1081.453 1326.713)"
       id="path2142" />
    <path
       d="M0 0c-21.997 66.905-47.035 133.06-106.985 190.611-10.055 2.85-21.594 5.007-33.924 6.794C-83.995 138.592-57.064 72.266-34.31 4.893-26.05-29.68 6.961-17.188 0 0"
       style="fill:#4b6ec6;fill-opacity:1;fill-rule:nonzero;stroke:none"
       transform="translate(1089.69 1418.72)"
       id="path2144" />
    <g
       clip-path="url(#C)"
       opacity=".18"
       id="g2148">
      <path
         d="M0 0c4.086 24.977-4.397 52.044-12.818 75.218-4.687 12.899-10.179 25.478-16.198 37.805C-7.96 76.232 5.853 37.655 18.622-1.179c1.311-3.238 1.202-6.308.109-8.929-3.895-2.635-9.024-3.107-15.76.135a21.95 21.95 0 0 0-4.658 3.04A46.186 46.186 0 0 1 0 0"
         style="fill:#fff;fill-opacity:1;fill-rule:nonzero;stroke:none"
         transform="translate(1071.068 1419.9)"
         id="path2146" />
    </g>
    <g
       clip-path="url(#D)"
       opacity=".15"
       id="g2152">
      <path
         d="M0 0a333.03 333.03 0 0 0 19.969-20.914c-4.664 2.099-9.937 3.142-11.71-1.341-2.295-5.802 6.948-14.331 9.803-18.531 7.999-11.766 16.462-22.722 23.207-35.318 13.665-25.522 23.891-52.955 29.883-81.292 2.429-11.483 2.312-24.76 9.15-34.794 4.927-7.231 13.636-12.385 22.593-10.958.817.131 1.575.342 2.317.573-7.174-8.528-26.487-8.467-32.537 16.857C49.921-118.346 22.989-52.02-33.924 6.794-21.594 5.006-10.055 2.85 0 0"
         style="fill:#000;fill-opacity:1;fill-rule:nonzero;stroke:none"
         transform="translate(982.705 1609.332)"
         id="path2150" />
    </g>
    <path
       d="M0 0c0 6.347 5.145 11.492 11.492 11.492 6.347 0 11.493-5.145 11.493-11.492 0-6.347-5.146-11.492-11.493-11.492S0-6.347 0 0"
       style="fill:#0e337c;fill-opacity:1;fill-rule:nonzero;stroke:none"
       transform="translate(1061.751 1422.45)"
       id="path2154" />
    <path
       d="M0 0c-25.612 105.729-74.537 191.1-158.578 241.669 8.554 9.891 20.232 22.21 30.192 26.922C-53.622 207.64-.814 164.46 44.781 21.692 56.148-24.954 4.597-19.488 0 0"
       style="fill:#4b6ec6;fill-opacity:1;fill-rule:nonzero;stroke:none"
       transform="translate(791.19 1373.525)"
       id="path2156" />
    <g
       clip-path="url(#E)"
       opacity=".15"
       id="g2160">
      <path
         d="M0 0c33.224-27.085 62.109-50.667 87.955-81.033-7.06 7.52-14.503 14.665-22.702 21.062-9.001 7.023-17.919 14.319-27.952 19.85-3.139 1.731-12.311 7.705-16.101 4.066-2.982-2.865 1.066-8.398 2.757-10.739 5.523-7.645 11.922-14.755 18.146-21.83 13.438-15.277 27.379-30.236 38.413-47.415 5.593-8.709 10.218-18.001 15.077-27.129 4.707-8.843 9.355-17.729 13.426-26.887 6.817-15.335 11.686-31.383 13.458-48.096 1.941-18.321 2.846-37.567 8.246-55.363-1.107 1.508-1.92 3.156-2.337 4.923C102.775-162.862 53.85-77.491-30.191-26.922-21.637-17.031-9.96-4.711 0 0"
         style="fill:#000;fill-opacity:1;fill-rule:nonzero;stroke:none"
         transform="translate(662.804 1642.116)"
         id="path2158" />
    </g>
    <g
       clip-path="url(#F)"
       opacity=".18"
       id="g2164">
      <path
         d="M0 0c10.017 11.887 7.686 30.171 4.631 44.119C1.867 56.74-1.937 68.99-6.424 80.984 2.838 60.281 11.742 36.803 20.385 9.74c9.556-39.218-25.353-41.595-39.449-29.777-1.043 3.285-1.872 6.606-2.601 9.717-.452 1.926-.842 3.86-1.218 5.795C-14.818-7.154-6.016-7.139 0 0"
         style="fill:#fff;fill-opacity:1;fill-rule:nonzero;stroke:none"
         transform="translate(815.586 1385.477)"
         id="path2162" />
    </g>
    <path
       d="M0 0c0 9.317 7.553 16.871 16.87 16.871 9.318 0 16.871-7.554 16.871-16.871 0-9.317-7.553-16.87-16.87-16.87C7.553-16.87 0-9.317 0 0"
       style="fill:#0e337c;fill-opacity:1;fill-rule:nonzero;stroke:none"
       transform="translate(798.493 1388.262)"
       id="path2166" />
    <path
       d="M0 0c-15.761-62.715-27.581-81.431 62.059-79.789C128.75-88.206 172.385-105.4 264.98-105.4c48.924 0 96.535 22.656 96.535 52.7 0 47.119-25.94 24.463-73.879 40.88C244.95 8.209 189.13 38.418 156.624 63.044 158.892 61.67 0 0 0 0"
       style="fill:#683c2e;fill-opacity:1;fill-rule:nonzero;stroke:none"
       transform="translate(986.89 310.325)"
       id="path2168" />
    <g
       clip-path="url(#G)"
       opacity=".15"
       id="g2172">
      <path
         d="M0 0s158.892 61.67 156.624 63.044c8.83-6.69 19.391-13.793 30.932-20.991-29.534 4.792-48.913-5.687-74.387-23.058C104.55 13.118 96.924.105 89.608-7.302c-7.059-7.146-18.161-46.986-2.838-53.373 18.923-7.888 39.847-9.776 59.988-12.396 23.799-3.095 46.788-10.241 70.716-12.542 20.219-1.944 40.771-.783 60.925 1.514 17.31 1.973 34.6 5.109 51.176 10.556 11.009 3.617 21.812 8.501 31.288 14.874-5.792-27.024-50.258-46.731-95.883-46.731-92.595 0-136.23 17.194-202.921 25.611C-27.581-81.431-15.761-62.715 0 0"
         style="fill:#000;fill-opacity:1;fill-rule:nonzero;stroke:none"
         transform="translate(986.89 310.325)"
         id="path2170" />
    </g>
    <path
       d="M0 0c-16.746-18.224-84.738-35.192-151.475-36.178-100.476 3.776-133.311 26.104-219.489 40.343-5.179-4.142-9.29-14.732-4.611-25.075 56.969-5.686 147.512-36.446 224.1-36.446 85.946 0 134.46 21.425 152.683 36.94C4.807-14.916 3.303-5.572 0 0"
       style="fill:#96847e;fill-opacity:1;fill-rule:nonzero;stroke:none"
       transform="translate(1347.197 249.475)"
       id="path2174" />
    <g
       clip-path="url(#H)"
       opacity=".2"
       id="g2178">
      <path
         d="M0 0a669.809 669.809 0 0 0 16.08-2.859c7.845-5.493 16.439-10.121 25.699-13.848 26.976-10.857 56.319-15.094 84.725-20.51 36.779-7.012 73.911-13.402 111.464-13.549 16.362-.064 33.285.814 49.818 3.575 7.483.77 14.935 1.863 22.325 3.353 23.012 4.64 47.175 14.018 63.854 30.835.62-4.173.234-8.482-1.793-11.579-18.224-15.514-66.738-36.939-152.684-36.94-76.588 0-167.13 30.761-224.1 36.447C-9.291-14.732-5.18-4.143 0 0"
         style="fill:#1d1d1b;fill-opacity:1;fill-rule:nonzero;stroke:none"
         transform="translate(976.234 253.64)"
         id="path2176" />
    </g>
    <path
       d="M0 0c6.855-41.852-.985-47.611-23.641-53.193-14.776-6.239-31.85-66.327-68.954-66.327-89.968-.259-166.803 21.999-166.803 42.685 0 36.775 80.775 92.595 126.744 135.281C-97.192 105.4-4.259 66.043 0 0"
       style="fill:#683c2e;fill-opacity:1;fill-rule:nonzero;stroke:none"
       transform="translate(806.297 238.744)"
       id="path2180" />
    <g
       clip-path="url(#I)"
       opacity=".15"
       id="g2184">
      <path
         d="M0 0c19.077-5.487 39.785-8.051 59.595-8.914 19.675-.858 40.317.795 58.621 8.558 8.168 3.465 16.924 8.101 21.485 16.057 4.206 7.336 4.48 15.951 7.011 23.851 3.089 9.638 10.205 14.514 18.256 19.811 6.125 4.031 13.195 8.537 14.941 16.168 3.243 14.172-9.414 28.86-18.471 38.177-13.04 13.415-29.508 22.457-48.146 24.978-17.299 2.341-35.48-.273-51.992-5.718-.236-.078-.479-.163-.718-.243 7.715 6.593 15.056 13.011 21.674 19.156 35.461 46.954 128.394 7.597 132.654-58.446 6.854-41.852-.985-47.611-23.642-53.193-14.775-6.239-31.849-66.327-68.953-66.327C32.346-26.344-44.488-4.086-44.488 16.6c0 3.581.774 7.345 2.2 11.257C-32.287 13.53-17.229 4.954 0 0"
         style="fill:#000;fill-opacity:1;fill-rule:nonzero;stroke:none"
         transform="translate(591.387 145.31)"
         id="path2182" />
    </g>
    <path
       d="M0 0c-11.146-22.19-33.35-20.53-47.669-45.224-34.24-56.652-170.785-51.049-214.038-4.459v-22.934c21.464-17.846 91.189-27.391 145.973-27.391 41.918 0 60.296 21.246 80.101 42.333C-30.238-50.004-5.91-30.748 0-21.567 3.605-16.291 1.9-.812 0 0"
       style="fill:#96847e;fill-opacity:1;fill-rule:nonzero;stroke:none"
       transform="translate(808.607 211.592)"
       id="path2186" />
    <g
       clip-path="url(#J)"
       opacity=".2"
       id="g2190">
      <path
         d="M0 0c24.536-10.007 50.959-10.654 76.906-13.381 23.387-2.458 48.106-5.26 70.904 2.216 10.409 3.414 20.036 8.88 27.389 17.086 7.469 8.339 12.87 18.231 19.598 27.13 6.004 7.941 13.755 14.071 20.814 21.013 1.911 1.881 3.972 3.91 5.903 6.089 6.35 4.283 12.144 9.262 16.357 17.649 1.9-.812 3.605-16.29 0-21.567-5.91-9.181-30.238-28.437-35.633-36.108-19.805-21.086-38.183-42.333-80.101-42.333-54.784 0-124.509 9.546-145.974 27.392v17.011C-18.134 12.549-10.661 4.348 0 0"
         style="fill:#1d1d1b;fill-opacity:1;fill-rule:nonzero;stroke:none"
         transform="translate(570.736 133.79)"
         id="path2188" />
    </g>
    <path
       d="M0 0c-49.977 29.96-128.125-24.978-191.907-58.947-24.431-10.628-41.618 24.328-37.022 79.938 9.194 85.371 30.431 17.074 79.79 52.208 76.505 70.267 97.802 46.276 136.869 30.537C24.11 85.684 7.686 74.505.584 44.354-2.132 32.825 20.065 16.046 0 0"
       style="fill:#7a94d3;fill-opacity:1;fill-rule:nonzero;stroke:none"
       transform="translate(1174.446 352.378)"
       id="path2192" />
    <g
       clip-path="url(#K)"
       opacity=".18"
       id="g2196">
      <path
         d="M0 0a90.985 90.985 0 0 1-5.851 4.36c-17.294 11.78-38.106 16.339-58.837 15.09-10.498-.632-20.733-2.409-30.477-6.469-11.58-4.825-22.23-11.609-33.828-16.393-4.035-1.665-30.872-10.339-25.001 1.127 4.614 9.01 14.789 14.144 23.769 17.522 16.58 6.236 34.123 9.903 51.721 11.418 14.833 1.277 30.429 2.087 44.597 7.038 9.718 3.396 18.695 10.018 14.783 21.38-3.987 11.582-16.269 17.506-27.292 20.523-14.805 4.05-30.813 4.314-45.953 2.259-.213-.029-.431-.062-.645-.092 33.891 14.823 52.375.081 79.282-10.759C22.647 48.952 6.223 37.773-.879 7.622-1.429 5.283-.939 2.721 0 0"
         style="fill:#fff;fill-opacity:1;fill-rule:nonzero;stroke:none"
         transform="translate(1175.909 389.11)"
         id="path2194" />
    </g>
    <g
       clip-path="url(#L)"
       opacity=".15"
       id="g2200">
      <path
         d="M0 0c9.194 85.372 30.431 17.074 79.789 52.208 12.059 11.075 22.742 19.804 32.343 26.597-13.099-17.209-28.975-34.876-50.507-40.328-12.194-3.087-24.763-4.416-36.39-9.547-8.131-3.588-16.708-10.264-11.991-20.02C16.321 2.548 21.342-.705 28.35-.981c4.529-.178 9.119.746 13.635.229 4.199-.481 10.275-4.587 7.591-9.473-3.135-5.704-11.947-6.689-17.154-9.616-6.461-3.632-13.333-11.387-14.276-18.953-.752-6.017 3.345-11.903 9.206-13.492 6.154-1.667 13.077.999 18.648 3.406 7.609 3.285 14.689 7.616 21.85 11.752 7.868 4.545 16.033 8.576 23.956 13.034 20.753 11.675 41.521 22.807 65.365 26.463 20.201 3.097 41.363 2.663 60.796-4.159a89.526 89.526 0 0 0 18.604-9.084c-1.112-3.368-3.443-6.758-7.642-10.117C178.951 8.97 100.804-45.969 37.022-79.937 12.59-90.565-4.597-55.61 0 0"
         style="fill:#000;fill-opacity:1;fill-rule:nonzero;stroke:none"
         transform="translate(945.518 373.368)"
         id="path2198" />
    </g>
    <path
       d="M0 0c-22.41 57.133-98.013 102.199-176.852 34.425-39.121-9.06-20.072 49.304-16.219 77.871 5.664 37.678-27.582 58.61 34.969 87.177 82.252 35.955 117.51 3.761 171.892-52.208 32.015-33.245 2.709-29.551-1.97-74.864C11.082 49.745 43.589 8.127 0 0"
       style="fill:#7a94d3;fill-opacity:1;fill-rule:nonzero;stroke:none"
       transform="translate(808.103 226.102)"
       id="path2202" />
    <g
       clip-path="url(#M)"
       opacity=".18"
       id="g2206">
      <path
         d="M0 0c-7.12-4.717-13.711-10.105-18.763-17.072-3.546-4.891-8.45-14.275-2.081-19.196 5.059-3.908 14.408.567 19.268 2.607C6.338-30.34 13.712-25.9 21.591-22.534 34.14-17.171 46.726-9.771 60.514-8.259c5.123.562 15.978.382 18.634-5.324 1.971-4.231-3.17-8.399-6.204-10.529-6.887-4.833-14.991-6.354-23.05-8.066-9.456-2.009-18.937-4.031-28.135-7.039C13.973-41.764 5.492-44.953-.43-50.844c-2.921-2.907-7.457-9.444-3.807-13.368 3.717-3.995 12.467-2.93 17.252-2.896 7.554.054 17.667 1.373 24.431-2.758 2.311-1.412 1.941-2.264-.057-3.794-1.884-1.443-4.061-2.482-6.259-3.354-4.834-1.92-9.99-3.048-15.073-4.077-9.971-2.018-20.533-2.955-30.095-6.596-10.658-4.059-23.376-11.912-29.775-21.57-5.457-8.237-6.994-18.079-9.606-27.508-3.52 17.422 4.745 46.722 7.142 64.501 5.664 37.678-27.582 58.611 34.969 87.177 56.493 24.695 90.82 17.235 124.399-7.991C77.916 23.568 32.054 21.244 0 0"
         style="fill:#fff;fill-opacity:1;fill-rule:nonzero;stroke:none"
         transform="translate(661.31 410.662)"
         id="path2204" />
    </g>
    <g
       clip-path="url(#N)"
       opacity=".15"
       id="g2210">
      <path
         d="M0 0c15.084 16.099 33.98 31.239 56.614 33.925 25.567 3.034 51.698-9.65 73.088-22.245 7.156-4.215 13.804-9.165 20.921-13.408 4.09-2.439 10.161-5.992 14.057-1.305 4.305 5.18.136 14.105-2.64 19.025-4.523 8.02-11.591 14.338-19.107 19.496-8.764 6.013-18.404 10.541-27.889 15.27-7.173 3.577-16.401 8.028-20.707 15.121-7.429 12.237 18.314 13.674 24.997 12.114 10.363-2.42 19.243-8.74 28.153-14.249 8.826-5.457 26.856-16.049 29.368 1.063 1.83 12.47-2.961 26.412-8.824 37.977 4.702-4.685 9.509-9.596 14.48-14.712 32.014-33.245 2.709-29.551-1.97-74.864-.739-22.656 31.768-64.274-11.82-72.401C146.31-2.06 70.707 43.006-8.131-24.769c-5.101-1.181-9.192-1.194-12.478-.298C-14.159-16.378-7.417-7.916 0 0"
         style="fill:#000;fill-opacity:1;fill-rule:nonzero;stroke:none"
         transform="translate(639.382 285.296)"
         id="path2208" />
    </g>
    <path
       d="M0 0c4.013 4.829 6.932 10.67 11.521 15.228 4.632 4.602 10.583 7.634 16.966 9.629C21.493 16.074 13.896 5.879 9.075-4.621A281.937 281.937 0 0 0 0 0m16.03-7.87c.727 2.861 1.65 5.723 2.874 8.601 3.776 8.881 8.909 17.152 14.079 25.351.916.215 1.832.424 2.754.603-2.22-7.613-5.016-15.072-7.424-22.632C24.122.354 20.581-3.904 18.022-8.731l-1.992.861m22.637 19.253c1.344 5.401 2.662 10.809 3.565 16.307 2.343.273 4.666.463 6.926.579 1.182.061 1.192 1.196 0 1.224-2.224.052-4.427.107-6.633.159a89.39 89.39 0 0 1 .552 4.547c.206.253.416.502.621.755.982-.855 1.829-1.577 2.507-2.109 5.084-3.992 10.562-9.046 16.632-12.381-8.269-1.755-16.681-4.792-24.17-9.081m21.502 18.055c-4.276 3.333-8.274 7.035-12.261 10.746 4.671 5.819 9.365 11.616 14.446 17.097 5.273 5.69 14.197 12.432 21.336 5.737 4.526-4.245 6.289-12.413 6.283-18.273-.008-6.289-2.042-13.248-6.214-18.102-7.209-8.387-16.934-2.391-23.59 2.795M37.573 40.296a122.243 122.243 0 0 1-4.045-7.056c-2.762.824-5.61.865-8.889.728-7.769-.324-22.992 2.001-18.878 14.025 4.678 13.669 20.877 1.644 31.812-7.697m-82.249-27.064C-30.257 1.591-11.664-6.798 5.574-14.14 3.22-22.918 3.479-31.677 8.308-39.783c.757-1.27 4.07-1.523 4.233.361.642 7.45.813 14.604 1.682 21.671a353.486 353.486 0 0 1 8.956-3.515c-.307-6.822.251-13.668.926-20.472.875-8.807 1.397-17.508 5.578-25.436.626-1.187 3.542-1.475 4.051 0 4.623 13.38.954 28.006-.021 42.158a366.668 366.668 0 0 1 33.572-9.643c8.041-1.899 16.257-3.633 24.541-5.07a9.327 9.327 0 0 1 .047-1.426c.169-1.363 2.491-1.617 3.403-.889.583.466 1.111.959 1.617 1.463 10.26-1.607 20.597-2.687 30.826-2.914 7.031-.155 14.348.561 20.602 4.043 6.872 3.825 11.985 10.581 18.158 15.383.43.335-.044.731-.458.697-5.438-.449-9.452-3.054-13.933-6.135-3.702-2.543-7.135-5.611-11.442-7.139-5.65-2.005-12.012-1.311-17.812-.664a322.405 322.405 0 0 0-20.861 3.033c.594.783 1.21 1.565 1.886 2.335 3.56 4.049 7.829 7.351 12.448 10.102 5.546 3.304 11.525 5.525 17.484 7.93 2.613 1.053 3.647 1.191 4.917 3.615.156.3-.272.503-.49.544-9.081 1.69-20.642-5.118-28.239-9.717-4.643-2.81-11.888-7.674-15.676-13.348a368.118 368.118 0 0 0-27.239 6.604c-.08.023-.159.048-.239.07 4.418 5.658 6.89 12.385 12.272 17.493C87.642-.539 98.259.539 109.513.886c2.527.078 2.485 2.454 0 2.583-11.492.599-23.243.594-33.395-5.545-7.139-4.316-16.131-12.797-17.512-21.629a392.312 392.312 0 0 0-24.976 8.612c.021.316.024.635.051.95.37 4.374 1.098 8.672 1.997 12.934 3.602 3.87 7.665 7.279 12.491 10.115 6.899 4.055 14.324 6.236 21.742 8.69a22.13 22.13 0 0 1 3.395-.599c8.877-.814 17.457 4.101 22.394 11.337 10.244 15.015 3.941 44.071-16.742 45.951-10.115.918-18.591-5.244-25.076-12.379a150.574 150.574 0 0 1-12.504-15.742c-2.812 2.51-5.68 4.941-8.71 7.154-9.961 7.276-33.801 11.317-36.567-6.166C-4.92 40.696-1.19 34.53 4.213 31.189c5.59-3.456 11.364-2.991 17.13-2.825-4.663-.989-9.218-2.628-13.62-5.345C2.036 19.509-5.77 12.554-9.272 5.075c-8.573 4.804-17.068 9.732-25.881 14.166-4.322 2.175-16.238-.588-9.523-6.009"
       style="fill:#44271e;fill-opacity:1;fill-rule:nonzero;stroke:none"
       transform="translate(1106.364 320.52)"
       id="path2212" />
    <path
       d="M0 0c8.853 5.129 16.666 11.542 23.256 19.376 2.186-.107 4.361-.269 6.507-.544C26.975 9.708 23.55.789 19.315-7.62 13.842-4.671 8.361-2.404 3.679-.979A58.523 58.523 0 0 1 0 0m22.456-22.195c.403.625.767 1.257 1.151 1.886a96.57 96.57 0 0 0 3.523-2.978c5.325-4.749 9.443-10.613 14.433-15.619-.116-.119-.228-.242-.344-.361-6.086-6.248-12.535-14.25-19.744-19.748-2.552 2.974-5.516 8.057-7.377 9.778a59.414 59.414 0 0 1-9.605 7.211c7.03 5.475 13.095 12.271 17.963 19.831m23.738-11.858c-2.977 8.292-10.195 15.564-18.472 21.295 4.71 9.744 7.446 19.854 9.189 30.314a62.33 62.33 0 0 0 6.824-1.988c7.102-2.531 13.123-6.907 17.71-12.871 1.078-1.401 4.682-7.057 6.742-11.938-1.742-1.986-3.473-3.945-5.125-5.887-5.478-6.44-11.081-12.766-16.868-18.925m3.085 53.389a73.518 73.518 0 0 1-11.611 3.206c.433 3.138.8 6.305 1.116 9.503 8.469 1.295 16.249 2.168 24.85-2.678 8.287-4.67 16.412-13.306 16.584-23.249-1.753-2.771-3.739-5.455-5.847-8.067a70.856 70.856 0 0 1-3.573 5.294c-5.415 7.319-12.99 12.851-21.519 15.991M37.373 42.513c-.929-.09-1.834-.519-1.99-1.292l-.048-.231c-7.987 6.358-19.912 6.84-30.558 5.937-7.853 2.347-15.406 5.303-21.973 9.451-3.265 2.063-5.984 3.742-3.998 7.6 3.383 6.573 16.922 2.804 22.126 1.3 13.387-3.868 26.345-12.694 36.441-22.765m-42.625-1.767c2.452.42 5.239.896 8.169 1.279 8.567-2.36 17.289-4.218 25.98-6.077-16.207-2.855-31.607-7.773-46.564-14.61-7.369-3.369-20.543-10.561-28.161-5.447-6.349 4.263 2.337 11.87 6.955 14.786 9.48 5.986 22.77 8.207 33.621 10.069m38.403-9.545a227.692 227.692 0 0 0-2.017-7.713c-1.455.153-2.917.236-4.378.312a88.225 88.225 0 0 1 4.702 7.127c.083.029.169.05.252.079.485.062.963.129 1.441.195m-45.947-13.805c1.788.81 3.571 1.624 5.346 2.418 10.325 4.618 21.341 6.233 32.05 9.078a94.72 94.72 0 0 0-4.259-4.978c-11.301-.247-22.598-2.622-33.137-6.518m-85.375-62.991c12.546 5.914 23.489 14.645 35.865 20.95 13.561 6.91 28.045 10.929 42.405 15.741a115.615 115.615 0 0 1 9.609 3.711c5.819-.727 11.555-2.404 16.9-4.683 3.121-1.33 6.094-2.915 8.948-4.687C10.494-23.279 4.447-31.305-2.82-38.242c-5.914 2.614-12.166 4.415-18.531 5.662-10.686 2.092-22.006 3.046-32.894 3.222-8.02.129-16.41-.515-22.899-5.611-2.641-2.074 1.683-3.335 3.394-2.776 13.446 4.393 27.767 2.917 41.599 1.067 8.219-1.099 16.479-2.882 24.018-6.259a88.63 88.63 0 0 0-15.352-10.091c-1.341-.694.613-1.628 1.362-1.478 7.354 1.48 14.19 4.318 20.413 8.159a46.968 46.968 0 0 0 4.778-3.389c5.032-4.086 7.111-9.558 11.406-14.037 1.486-1.549 3.217-2.802 5.498-3.149 7.873-1.196 14.955 9.407 19.617 14.18C49.884-42.2 60.729-31.301 70.697-19.823c.727-.28 1.49-.442 2.034-.472l1.066-.059c1.487-.083 4.048.629 4.623 2.221.815 2.259.643 4.84-.075 7.47C82.375-5.606 86.177-.432 89.632 4.88c7.25 11.147 8.586 32.038-9.066 33.11-1.48.09-5.099-1.549-3.117-3.426 6.92-6.558 9.643-13.021 6.42-21.473-1.521 9.669-9.484 18.073-18.251 22.347-5.27 2.569-13.039 4.522-20.357 4.34C32.936 55.762 18.363 68.422-2.061 72.371c-7.637 1.477-31.592 1.963-29.333-11.808 1.325-8.076 14.436-12.601 23.162-15.245-13.892-2.032-30.739-5.175-41.295-14.323-4.128-3.576-9.834-9.897-6.79-15.745 3.091-5.94 12.428-6.324 18.122-5.846 7.723.649 14.962 3.388 22.022 6.488-.552-.788 1.256-1.668 2.364-1.337 9.175 2.748 19.452 4.579 29.697 4.876A95.292 95.292 0 0 0 .181 7.367c-3.599-2.208-7.351-4.026-11.185-5.63-14.311 1.266-31.21-.966-38.025-12.008-19.351-6.288-42.958-16.573-52.545-33.674-.908-1.62 2.526-2.064 3.403-1.65"
       style="fill:#44271e;fill-opacity:1;fill-rule:nonzero;stroke:none"
       transform="translate(654.152 246.326)"
       id="path2214" />
    <path
       d="M0 0c-.657.657-91.938-30.208-91.938-30.208l-28.895 47.282 13.134-76.834-66.984-19.701-246.923 939.74 116.893 42.029 31.522-67.64-2.627 51.223 49.91 24.782z"
       style="fill:#9b6a59;fill-opacity:1;fill-rule:nonzero;stroke:none"
       transform="translate(512.092 1004.458)"
       id="path2216" />
    <path
       d="M0 0c2.758-14.46 6.659-28.685 10.618-42.081 9.576-32.409 22.775-63.595 37.334-94.073 14.796-30.99 31.483-61.073 47.343-91.551 8.215-15.76 16.213-31.62 23.917-47.656 4.275-8.885 9.083-18.007 13.14-27.346 2.049-7.387 4.453-14.598 7.369-21.533.925-3.999 11.189-3.093 10.027 1.754-4.156 17.238-9.298 33.984-12.332 51.538-2.66 15.445-4.275 30.95-5.595 46.553-2.68 31.877-5.675 63.832-11.565 95.294a430.298 430.298 0 0 1-26.893 88.97C84.439-19.149 75.022 2.62 63.654 22.893l-11.033-3.96c9.004-21.75 20.036-42.968 28.409-64.797 11.506-30.044 21.042-60.324 26.439-92.141 5.261-31.03 7.606-62.473 12.255-93.6 1.635-11.013 3.112-22.42 4.926-33.847-5.615 12.176-11.467 24.232-17.357 36.27-14.994 30.635-30.222 61.132-44.565 92.083-14.145 30.556-26.852 61.841-36.684 94.072-4.826 15.8-8.786 31.876-11.978 48.09z"
       style="fill:#754a41;fill-opacity:1;fill-rule:nonzero;stroke:none"
       transform="translate(122.737 1876.321)"
       id="path2218" />
    <path
       d="M0 0c23.996-48.898 55.498-94.506 85.681-139.74 27.778-41.647 55.182-83.65 76.322-129.16 22.795-49.055 37.097-101.716 50.061-154.082a2114.908 2114.908 0 0 0 33.551-163.085 2097.218 2097.218 0 0 0 12.018-82.961c3.487-27.838 5.931-55.813 11.21-83.375.355-1.871 2.916-2.778 5.064-2.541l-5.399 31.62 8.373-13.712c-.65 26.557-4.196 53.015-7.585 79.356a2142.647 2142.647 0 0 1-13.988 92.28c-9.338 53.567-20.804 106.72-34.083 159.44-13.239 52.582-28.114 104.475-52.386 153.176C123.98-162.711 58.631-84.774 6.856 1.202 5.457 3.546-1.478 3.034 0 0"
       style="fill:#754a41;fill-opacity:1;fill-rule:nonzero;stroke:none"
       transform="translate(122.757 1744.856)"
       id="path2220" />
    <path
       d="M0 0c.236-.394.453-.788.69-1.182 15.327-26.025 32.841-50.868 50.1-75.632 2.068-2.975 12.234-2.837 11.84 2.029-3.743 45.667-7.546 91.374-13.141 136.883-9.772 79.395-25.021 158.83-55.026 233.3-7.821 19.445-16.45 38.633-27.404 56.522-9.93 16.194-21.317 31.443-32.448 46.83-12.924 17.849-25.651 35.875-38.89 53.488-7.171 9.535-14.48 18.834-21.908 28.034l6.226-23.68v-.02a803.164 803.164 0 0 1 7.723-11.249c13.712-19.642 27.916-38.949 41.884-58.394 11.959-16.648 23.858-33.334 33.473-51.479 9.456-17.889 17.297-36.644 24.409-55.557 14.441-38.319 25.218-77.937 33.434-118.029C35.56 90.625 42.279 18.105 48.248-54.296c-13.259 18.322-26.065 36.9-37.511 56.503-8.491 14.519-16.017 29.59-23.09 44.859-.019.02-.039.039-.019.059z"
       style="fill:#754a41;fill-opacity:1;fill-rule:nonzero;stroke:none"
       transform="translate(280.958 1139.817)"
       id="path2222" />
    <path
       d="M0 0a339.094 339.094 0 0 1 4.63-8.727c0-.04.019-.079.039-.119C16.49-30.675 29.749-51.755 41.195-73.82c12.904-24.843 24.291-50.494 34.162-76.676 18.224-48.485 30.576-98.781 38.083-149.945-20.331 24.193-37.353 50.809-52.622 78.587-.138.237-.257.473-.394.71l9.792-37.235c14.027-21.415 29.413-41.944 46.395-61.074 2.089-2.364 11.663-2.955 11.171 1.912-5.832 57.29-19.839 113.655-40.328 167.439a676.853 676.853 0 0 1-36.428 79.651C37.649-45.588 22.44-20.174 3.546.946c-.275.315-.906.472-1.596.472C.769 1.478-.532 1.044 0 0"
       style="fill:#754a41;fill-opacity:1;fill-rule:nonzero;stroke:none"
       transform="translate(172.779 1542.684)"
       id="path2224" />
    <path
       d="M0 0c.611-44.485 4.788-89.049 9.161-133.396 7.664-77.957 17.535-155.737 27.996-233.379 5.28-39.146 10.797-78.272 16.648-117.359a8457.769 8457.769 0 0 1 8.334-54.434 2225.44 2225.44 0 0 0 14.165 4.748 9067.745 9067.745 0 0 0-9.831 65.073c-11.407 77.563-22.066 155.224-31.582 233.044C25.277-157.195 18.204-77.859 4.532 0 4.197 1.871-.039 1.99 0 0"
       style="fill:#754a41;fill-opacity:1;fill-rule:nonzero;stroke:none"
       transform="translate(372.922 1517.841)"
       id="path2226" />
    <path
       d="M0 0c3.29-16.411 6.344-32.881 9.95-49.272 4.668-21.14 8.766-42.338 11.898-63.753 5.616-38.496 5.518-76.007 4.887-114.759-.572-34.693 3.271-69.19 10.698-103.056 15.327-69.86 44.544-136.785 79.889-198.744 1.595-2.798 11.268-3.586 10.343.886-12.708 61.487-9.32 125.969-8.67 188.402.177 16.588.493 33.176.867 49.765l-9.122 36.821c-.63-28.882-.906-57.744-1.182-86.587-.511-53.271-1.556-106.838 3.941-159.874-13.357 26.794-26.104 53.903-37.057 81.819-13.418 34.221-24.371 69.545-31.03 105.736-6.581 35.816-7.624 71.376-6.66 107.686 1.045 38.456-2.206 76.4-9.83 114.128a848.013 848.013 0 0 1-12.255 52.247C12.983-24.784 8.373-11.466 3.861 1.931z"
       style="fill:#754a41;fill-opacity:1;fill-rule:nonzero;stroke:none"
       transform="translate(243.623 1893.994)"
       id="path2228" />
    <path
       d="M0 0c.729-1.97 1.498-3.92 2.128-5.812a702.811 702.811 0 0 1 8.294-23.424 677.43 677.43 0 0 1 18.44-44.229c13.496-29.433 30.636-56.838 44.643-85.936 1.576-3.29 11.25-3.783 10.895.926-2.443 32.684-11.604 64.363-24.607 94.309-6.679 15.367-14.047 30.379-21.671 45.292C33.374-9.555 28.035-.689 22.676 8.156h-.02l-7.762-2.797C17.889-2.975 21.1-11.21 25.001-19.484c6.876-14.54 13.869-29.059 20.312-43.815 10.678-24.39 20.154-49.312 25.139-75.377-14.166 21.297-25.474 44.879-35.876 67.949a674.393 674.393 0 0 0-17.475 42.653A660.84 660.84 0 0 0 8.905-4.63C8.136-2.324 7.487.059 6.797 2.443z"
       style="fill:#754a41;fill-opacity:1;fill-rule:nonzero;stroke:none"
       transform="translate(142.655 1883.492)"
       id="path2230" />
    <path
       d="M0 0c1.202-33.906-1.675-67.811-.729-101.717 1.714-62.137 22.085-125.2 49.351-180.619 1.045-2.108 6.679-1.773 5.813 1.024-15.584 50.415-6.719 105.46-1.163 156.762 1.852 17.002 3.802 34.122 5.555 51.321l-5.496 22.164c-1.655-25.828-3.999-51.597-6.64-77.307-4.333-41.964-8.628-83.139-3.466-124.472-8.886 23.937-16.511 48.426-21.81 73.308-13.909 65.486-2.64 131.997-8.038 198.015a391.234 391.234 0 0 1-18.283 90.31c-7.349 22.341-17.397 43.599-25.395 65.664l-11.427-5.674c6.679-24.154 18.361-47.381 25.572-71.101C-6.542 65.979-1.163 33.098 0 0"
       style="fill:#bc8779;fill-opacity:1;fill-rule:nonzero;stroke:none"
       transform="translate(291.832 1728.446)"
       id="path2232" />
    <path
       d="M0 0c.415-18.047 3.822-36.506 7.566-53.528 5.398-24.626 14.362-47.598 28.015-68.796 14.736-22.853 31.01-44.662 44.997-68.028 13.85-23.129 26.951-46.396 42.101-68.717.414-.591 2.286-.394 1.971.512-17.495 50.041-49.746 92.576-75.16 138.656-12.037 21.849-20.292 45.195-25.947 69.446-4.196 18.047-6.028 37.038-10.245 55.223h-.019z"
       style="fill:#bc8779;fill-opacity:1;fill-rule:nonzero;stroke:none"
       transform="translate(101.952 1868.855)"
       id="path2234" />
    <path
       d="M0 0c5.418-13.574 10.915-26.793 17.81-39.717 7.368-13.791 15.387-27.759 20.923-42.377 4.826-12.727 7.781-28.843 17.829-38.634.06-.079.355-.079.295.079-2.56 6.954-6.324 13.436-8.766 20.509-2.542 7.249-4.63 14.657-7.23 21.887C35.58-63.536 28.724-49.765 22.282-35.56 16.608-23.031 11.545-10.422 6.758 2.443L.473.177Z"
       style="fill:#bc8779;fill-opacity:1;fill-rule:nonzero;stroke:none"
       transform="translate(148.979 1885.758)"
       id="path2236" />
    <path
       d="m0 0 4.65-17.711c10.875-14.658 23.996-28.133 34.555-42.003 19.249-25.257 32.586-54.927 45.196-83.867 12.234-28.074 22.893-56.877 31.088-86.37 15.091-54.256 23.583-110.739 23.602-167.183-13.18 20.016-26.636 39.855-39.658 59.99a2460.439 2460.439 0 0 0-18.421 28.862l10.894-41.451v-.02c15.23-23.72 30.873-47.341 47.756-69.879 2.247-3.015 12.511-3.015 12.235 2.088-1.005 18.578-1.734 37.137-3.606 55.655-1.753 17.377-5.457 34.517-8.195 51.755-9.773 61.31-26.912 122.738-51.992 179.615-12.432 28.231-27.168 54.237-46.593 78.233C27.405-34.851 13.338-17.829 0 0"
       style="fill:#bc8779;fill-opacity:1;fill-rule:nonzero;stroke:none"
       transform="translate(168.444 1568.02)"
       id="path2238" />
    <path
       d="m0 0 13.121-50.001v-.02c3.98-6.758 7.92-13.535 11.821-20.331 10.757-18.835 21.041-37.925 31.404-56.976 5.359-9.85 10.521-19.819 16.056-29.591 3.231-5.694 6.305-11.742 10.068-17.218-.453-4.788-.946-9.575-1.36-14.343l16.411 4.827c1.3 9.811 1.399 19.898 1.36 29.236-.04 18.657-1.793 37.275-3.981 55.774-4.471 37.767-9.909 75.514-16.154 113.005-6.345 37.905-14.54 75.219-22.677 112.769-8.116 37.452-15.662 75.475-29.473 111.35-.275.709-2.384.69-2.206-.197 6.875-37.294 17.061-73.879 24.075-111.153 7.013-37.274 11.486-75.179 16.529-112.769C70.038-23.267 75.14-60.916 79.613-98.643c2.049-17.416 3.703-34.91 3.921-52.464-4.118 9.476-8.787 18.716-13.377 27.975-9.576 19.347-19.938 38.279-30.479 57.114C28.824-46.593 17.594-27.306 5.517-8.59 3.684-5.753 1.853-2.876 0 0"
       style="fill:#bc8779;fill-opacity:1;fill-rule:nonzero;stroke:none"
       transform="translate(285.627 1122.106)"
       id="path2240" />
    <path
       d="M0 0c.552-24.685 2.266-49.43 3.862-73.859 4.551-69.289 11.347-138.44 18.814-207.472 2.936-27.207 5.891-54.415 8.847-81.622 5.22 1.734 10.579 3.527 15.8 5.26-6.995 64.206-14.165 128.392-20.824 192.637-3.31 31.877-6.463 63.793-9.3 95.728-.02.02-.02.039-.02.079z"
       style="fill:#bc8779;fill-opacity:1;fill-rule:nonzero;stroke:none"
       transform="translate(426.391 1349.89)"
       id="path2242" />
    <path
       d="M0 0s.02-.02.02-.039c5.437-36.27 6.856-72.914 7.152-109.794.216-25.651 1.359-51.401 2.64-77.032.591-11.919 1.3-23.838 1.832-35.777.512-11.623-.374-24.606 3.704-35.659.256-.669 1.674-.532 1.812.158 2.266 12.51-.61 26.38-.689 39.087-.079 13.081.61 26.301 1.576 39.363 1.812 24.941 4.058 50.198 4.019 75.218a657.078 657.078 0 0 1-.217 16.431z"
       style="fill:#bc8779;fill-opacity:1;fill-rule:nonzero;stroke:none"
       transform="translate(306.016 1835.146)"
       id="path2244" />
    <g
       clip-path="url(#O)"
       opacity=".15"
       id="g2248">
      <path
         d="M0 0c-2.209-39.968 18.859-62.151 48.511-63.675 12.114-25.001 3.508-43.246 33.808-53.048 0 0 1.609 32.625-5.186 65.415C69.827-7.645 101.597.85 83.928 30.921 60.822 59.973 3.737 29.732 0 0m-139.473-96.302c-23.969-17.402-12.477-55.163 20.194-64.521-8.208-16.581-.657-41.864 33.492-41.864 27.91 0 38.089 41.372 16.746 55.655 16.089 12.642 10.271 49.553-10.836 53.193 30.537 12.23 9.686 65.835-13.298 64.521 37.432 21.835 2.462 72.894-52.563 63.812-31.824-6.351-36.092-50.842-5.555-63.812-28.895-11.821-9.851-64.357 11.82-66.984"
         style="fill:#000;fill-opacity:1;fill-rule:nonzero;stroke:none"
         transform="translate(327.973 1531.556)"
         id="path2246" />
    </g>
    <path
       d="m0 0 18.047-72.748c11.254 28.851 17.37 38.535 10.574 71.324-7.305 43.664 24.465 52.158 6.796 82.23-23.106 29.052-80.191-1.19-83.928-30.921C-50.72 9.916-29.653 1.525 0 0"
       style="fill:#ffd5c7;fill-opacity:1;fill-rule:nonzero;stroke:none"
       transform="translate(392.245 1487.581)"
       id="path2250" />
    <g
       clip-path="url(#P)"
       opacity=".3"
       id="g2254">
      <path
         d="M0 0c2.021 16.082 19.654 32.292 39.071 39.209-7.703-4.848-14.271-11.759-18.984-19.3-6.164-9.863-8.903-21.351-4.299-32.38 4.283-10.261 12.229-17.09 23.064-19.62 6.724-1.57 12.941-2.803 18.282-7.564 5.164-4.603 8.232-11.138 10.271-17.63 4.17-13.276 7.993-27.33 8.381-41.386-2.32-6.906-5.488-14.373-9.228-23.962L48.511-49.885C18.859-48.36-2.209-39.968 0 0"
         style="fill:#ad5842;fill-opacity:1;fill-rule:nonzero;stroke:none"
         transform="translate(343.734 1537.466)"
         id="path2252" />
    </g>
    <path
       d="M0 0c-31.824-6.351-36.092-50.842-5.555-63.812-28.895-11.821-9.851-64.357 11.821-66.983-23.97-17.403-12.478-55.163 20.193-64.521-8.208-16.582-.656-41.865 33.492-41.865 27.91 0 26.268 39.402 4.926 53.685 16.088 12.642 10.27 49.553-10.836 53.193 30.536 12.23 9.686 65.835-13.299 64.521C78.174-43.946 55.025 9.082 0 0"
       style="fill:#ffd5c7;fill-opacity:1;fill-rule:nonzero;stroke:none"
       transform="translate(168.444 1568.02)"
       id="path2256" />
    <g
       clip-path="url(#Q)"
       opacity=".3"
       id="g2260">
      <path
         d="M0 0c-1.669 11.338-8.501 16.234-18.902 21.9 8.544 7.553 12.611 23.778 8.459 33.467-5.984 13.961-23.913 20.132-37.839 23.442 12.955 9.274 22.994 25.287 18.693 40.27-4.326 15.063-25.237 22.97-39.43 27.006 9.049 4.275 21.391 12.807 26.748 21.756 4.659 7.781 5.046 13.364 3.247 22.359-1.636 8.186-8.95 14.006-15.637 18.646a53.7 53.7 0 0 1-1.958 1.3c46.431.364 63.734-46.56 29.075-66.778 22.984 1.314 43.835-52.29 13.298-64.521C6.861 75.207 12.679 38.296-3.41 25.654c20.854-13.956 22.882-51.873-3.073-53.602C-1.148-23.07 1.208-8.215 0 0"
         style="fill:#ad5842;fill-opacity:1;fill-rule:nonzero;stroke:none"
         transform="translate(236.73 1358.87)"
         id="path2258" />
    </g>
    <path
       d="M0 0c-17.169 2.996-32.773 3.885-46.298 1.97C-42.439-1.177-15.777-1.774 0 0"
       style="fill:#ad5842;fill-opacity:1;fill-rule:nonzero;stroke:none"
       transform="translate(209.186 1502.237)"
       id="path2262" />
    <path
       d="M0 0c-16.428 1.546-32.302 1.21-47.775-.493C-43.835-2.955-14.787-2.558 0 0"
       style="fill:#ad5842;fill-opacity:1;fill-rule:nonzero;stroke:none"
       transform="translate(222.485 1437.717)"
       id="path2264" />
    <path
       d="M0 0c-16.638-3.284-30.217-7.092-38.417-11.821C-31.275-13.052-13.348-6.123 0 0"
       style="fill:#ad5842;fill-opacity:1;fill-rule:nonzero;stroke:none"
       transform="translate(233.32 1384.524)"
       id="path2266" />
    <path
       d="M0 0h63.372l-.001 323.426H-.001Z"
       style="fill:#9d9d9c;fill-opacity:1;fill-rule:nonzero;stroke:none"
       transform="translate(1544.185 1724.605)"
       id="path2268" />
    <g
       clip-path="url(#R)"
       opacity=".15"
       id="g2272">
      <path
         d="M0 0v-69.972c-.209.499-.395 1.003-.618 1.499-3.339 7.448-8.754 14.629-17.126 16.519-7.468 1.685-15.811-.185-20.124-6.82-5.311-8.171-5.356-264.652-5.356-264.652h-20.147V0Z"
         style="fill:#000;fill-opacity:1;fill-rule:nonzero;stroke:none"
         transform="translate(1607.556 2048.031)"
         id="path2270" />
    </g>
    <g
       clip-path="url(#S)"
       opacity=".15"
       id="g2276">
      <path
         d="M0 0v34.609h63.371V.308C42.417-2.261 21.118-1.683 0 0"
         style="fill:#000;fill-opacity:1;fill-rule:nonzero;stroke:none"
         transform="translate(1544.184 2013.422)"
         id="path2274" />
    </g>
    <path
       d="M0 0h46.888c16.027 0 29.141 13.114 29.141 29.141l-.001 159.619c0 16.028-13.113 29.141-29.141 29.141H-.001c-16.027 0-29.141-13.114-29.141-29.141l.001-159.619C-29.141 13.113-16.028 0 0 0"
       style="fill:#8e1e1e;fill-opacity:1;fill-rule:nonzero;stroke:none"
       transform="translate(1552.428 1538.828)"
       id="path2278" />
    <g
       clip-path="url(#T)"
       opacity=".18"
       id="g2282">
      <path
         d="M0 0c.952 27.091 1.316 54.2 1.384 81.307.032 13.244.333 26.462.659 39.702.169 6.883.27 13.77.118 20.655-.101 4.545.357 9.204-.109 13.728-.798 7.746-5.362 11.038-12.831 11.571-4.612.329-9.225-.233-13.838-.118-4.795.118-9.585.394-14.379.534-15.195.445-31.478.042-44.945-7.127 4.99 8.94 14.531 15.033 25.445 15.033h46.888c16.027 0 29.141-13.113 29.141-29.141V-13.475c0-12.645-8.174-23.45-19.492-27.458C-1.14-27.297-.479-13.652 0 0"
         style="fill:#fff;fill-opacity:1;fill-rule:nonzero;stroke:none"
         transform="translate(1610.923 1581.444)"
         id="path2280" />
    </g>
    <g
       clip-path="url(#U)"
       opacity=".15"
       id="g2286">
      <path
         d="M0 0c9.953 1.204 20.945 2.071 30.853.244 9.274-1.71 14.036-7.778 14.665-16.91.527-7.635-.959-169.576-.959-169.576H14.64c-16.028 0-29.141 13.113-29.141 29.141l-.001 151.137C-11.231-2.22-5.135-.621 0 0"
         style="fill:#000;fill-opacity:1;fill-rule:nonzero;stroke:none"
         transform="translate(1537.788 1725.07)"
         id="path2284" />
    </g>
    <path
       d="M0 0h46.888c16.028 0 29.141-13.113 29.141-29.141V-188.76c.001-16.027-13.113-29.141-29.141-29.141H.001c-16.028 0-29.142 13.114-29.142 29.141v159.619C-29.141-13.114-16.028 0 0 0"
       style="fill:#8e1e1e;fill-opacity:1;fill-rule:nonzero;stroke:none"
       transform="translate(1552.427 1616.112)"
       id="path2288" />
    <g
       clip-path="url(#V)"
       opacity=".18"
       id="g2292">
      <path
         d="M0 0c.952-27.091 1.316-54.2 1.384-81.307.033-13.244.334-26.462.66-39.702.169-6.883.269-13.77.117-20.655-.101-4.545.358-9.204-.109-13.728-.798-7.746-5.361-11.038-12.83-11.571-4.612-.329-9.225.233-13.838.118-4.795-.119-9.585-.394-14.379-.534-15.195-.445-31.478-.043-44.945 7.127 4.99-8.941 14.531-15.033 25.445-15.033h46.888c16.027 0 29.141 13.114 29.141 29.141l-.001 159.619c0 12.645-8.175 23.45-19.492 27.458C-1.141 27.297-.479 13.652 0 0"
         style="fill:#fff;fill-opacity:1;fill-rule:nonzero;stroke:none"
         transform="translate(1610.923 1573.496)"
         id="path2290" />
    </g>
    <g
       clip-path="url(#W)"
       opacity=".15"
       id="g2296">
      <path
         d="M0 0c9.953-1.204 20.945-2.071 30.853-.244 9.274 1.71 14.036 7.778 14.665 16.91.527 7.635-.96 169.576-.96 169.576H14.639c-16.028 0-29.141-13.113-29.141-29.141V5.964C-11.231 2.22-5.135.621 0 0"
         style="fill:#000;fill-opacity:1;fill-rule:nonzero;stroke:none"
         transform="translate(1537.788 1429.87)"
         id="path2294" />
    </g>
    <path
       d="M0 0c80.56.001 134.558-57.043 150.045-109.477 3.34-11.309-10.292-19.956-18.984-11.988C101.18-94.075 66.225-69.862-1.336-69.853z"
       style="fill:#706f6f;fill-opacity:1;fill-rule:nonzero;stroke:none"
       transform="translate(1656.8 2112.97)"
       id="path2298" />
    <g
       clip-path="url(#X)"
       opacity=".18"
       id="g2302">
      <path
         d="M0 0a135.3 135.3 0 0 1-6.003 13.122c-13.615 25.929-36.563 45.641-58.509 64.417-11.302 9.67-22.63 19.633-34.919 28.04-8.878 6.074-18.229 11.41-27.776 16.36C-56.349 114.407-8.993 61.955 5.343 13.416 7.061 7.601 4.279 2.51 0 0"
         style="fill:#fff;fill-opacity:1;fill-rule:nonzero;stroke:none"
         transform="translate(1801.502 1990.077)"
         id="path2300" />
    </g>
    <g
       clip-path="url(#Y)"
       opacity=".15"
       id="g2306">
      <path
         d="M0 0c5.744 0 11.337-.321 16.807-.879 1.359-3.731 1.457-8.408 1.591-11.62.267-6.398-.188-12.867.538-19.24 1.335-11.709 12.517-17.881 22.39-22.075 6.168-2.619 12.614-4.461 18.822-6.966 9.656-3.897 18.748-9.124 27.449-14.812 16.651-10.885 32.001-23.176 45.912-37.388 1.857-1.898 6.1-7.419 10.321-10.379-3.922-1.893-8.843-1.704-12.769 1.894C101.18-94.075 66.225-69.863-1.336-69.853z"
         style="fill:#000;fill-opacity:1;fill-rule:nonzero;stroke:none"
         transform="translate(1656.8 2112.97)"
         id="path2304" />
    </g>
    <path
       d="M0 0h110.945c6.379 0 11.598 5.219 11.598 11.599v24.249c0 6.38-5.219 11.599-11.598 11.599H0c-6.379 0-11.599-5.22-11.599-11.599v-24.25C-11.599 5.219-6.379 0 0 0"
       style="fill:#706f6f;fill-opacity:1;fill-rule:nonzero;stroke:none"
       transform="translate(1442.907 2055.5)"
       id="path2308" />
    <g
       clip-path="url(#Z)"
       opacity=".15"
       id="g2312">
      <path
         d="M0 0h29.794c-.171-7.081-1.42-14.081-1.507-21.228-.093-7.644-1.185-12.982 5.411-13.012 7.467-.032 8.722 1.492 8.812 5.797.11 5.303.398 9.131.448 14.437.037 3.779-.297 10.228-.269 14.006h68.256c6.379 0 11.599-5.219 11.599-11.598v-24.25c0-6.379-5.219-11.598-11.599-11.598L0-47.447c-6.379 0-11.598 5.22-11.598 11.599v24.25C-11.598-5.219-6.379 0 0 0"
         style="fill:#000;fill-opacity:1;fill-rule:nonzero;stroke:none"
         transform="translate(1442.906 2102.947)"
         id="path2310" />
    </g>
    <path
       d="M0 0h119.52c13.003 0 23.641 10.639 23.641 23.642v46.625c0 13.003-10.639 23.642-23.641 23.642H0c-13.003-.001-23.641-10.639-23.641-23.642V23.641C-23.641 10.639-13.003 0 0 0"
       style="fill:#9d9d9c;fill-opacity:1;fill-rule:nonzero;stroke:none"
       transform="translate(1516.11 2032.27)"
       id="path2314" />
    <g
       clip-path="url(#aa)"
       opacity=".18"
       id="g2318">
      <path
         d="M0 0c.129 9.382 1.59 18.864.166 28.211-.849 5.573-2.809 10.289-7.618 13.452-5.298 3.483-11.901 4.847-18.063 5.832-16.803 2.685-33.995 3.99-50.912 5.726-18.903 1.94-38.5 3.556-57.522 2.374-8.309-.516-14.646-3.34-19.397-8.437v6.743c0 13.003 10.638 23.641 23.641 23.641l119.52.001c13.003 0 23.641-10.639 23.641-23.641l.001-46.626c0-9.445-5.626-17.618-13.68-21.398C-.146-9.414-.065-4.706 0 0"
         style="fill:#fff;fill-opacity:1;fill-rule:nonzero;stroke:none"
         transform="translate(1645.815 2048.636)"
         id="path2316" />
    </g>
    <path
       d="M0 0h42.777c11.171 0 20.312 9.141 20.312 20.312v98.022c0 11.172-9.141 20.312-20.313 20.312H0c-11.172 0-20.313-9.14-20.313-20.312l.001-98.022C-20.312 9.141-11.172 0 0 0"
       style="fill:#b2b2b2;fill-opacity:1;fill-rule:nonzero;stroke:none"
       transform="translate(1403.768 2009.9)"
       id="path2320" />
    <g
       clip-path="url(#ab)"
       opacity=".18"
       id="g2324">
      <path
         d="M0 0h42.777c11.172 0 20.312-9.14 20.312-20.312v-10.341c0 10.341-48.548 11.145-59.475 3.38-9.04-8.516-2.153-111.373-2.153-111.373H0c-11.172 0-20.312 9.14-20.312 20.312v98.022C-20.312-9.141-11.172 0 0 0"
         style="fill:#fff;fill-opacity:1;fill-rule:nonzero;stroke:none"
         transform="translate(1403.768 2148.547)"
         id="path2322" />
    </g>
    <path
       d="M0 0c62.213-5.988 79.91-25.279 59.451-59.846 12.664-2.739 16.061-49.206-1.642-53.603 21.772-11.644 13.211-50.147-4.336-56.363 11.817-25.896 2.584-47.47-72.458-40.534-56.955 6.116-70.007 25.325-54.721 41.257-26.861 14.604-18.98 59.523 5.781 59.976-18.112 4.866-14.418 51.41 2.366 57.215C-78.351-17.901-66.09 2.139 0 0"
       style="fill:#ffd5c7;fill-opacity:1;fill-rule:nonzero;stroke:none"
       transform="translate(1588.276 1682.161)"
       id="path2326" />
    <g
       clip-path="url(#ac)"
       opacity=".3"
       id="g2330">
      <path
         d="M0 0c-18.112 4.866-14.419 51.41 2.365 57.215-10.321 27.431-4.311 45.767 33.105 50.706-4.991-2.286-9.596-5.285-13.058-9.142-17.349-19.328 27.2-33.37 39.331-36.545 14.306-3.744 29.493-5.742 44.284-5.897 10.534-.11 20.529 1.031 28.169 8.222-1.038-3.769-2.699-7.775-4.979-12.028l-1.841-3.264c-12.469-1.034-29.648 2.401-42.059 3.558-14.908 1.389-29.891 4.281-44.876 4.446-9.177.101-20.953-.52-27.203-8.313-4.898-6.106-4.373-14.457-.894-21.11 4.892-9.353 14.893-14.952 24.508-18.362 20.293-7.198 42.779-5.124 63.846-3.352 9.258.778 18.76 1.871 27.575 4.942 3.257 1.135 6.589 2.619 9.345 4.727-.597-5.494-2.032-10.588-4.427-14.328-2.057-3.282-5.103-5.342-7.457-5.81-6.854-.353-12.038 1.282-18.256 1.118-15.322-.403-30.509 1.862-45.802 1.931-13.119.06-28.451 1.777-40.279-5.265-7.23-4.305-9.774-12.065-6.765-19.88 3.963-10.291 13.946-16.708 23.62-20.906 12.911-5.602 27.019-7.829 41.001-8.485 13.269-.622 27.839-1.018 40.86 2.022 5.378 1.256 10.313 3.418 14.437 6.555-1.769-3.698-4.049-6.938-6.702-9.403-2.161-1.869-4.125-3.247-6.45-4.05-8.048-2.302-17.227-1.146-25.253-1.29-9.489-.17-18.903-.471-28.385-.909-8.025-.371-16.067-.483-24.091-.02-6.319.364-12.824 1.834-19.152.835-9.168-1.448-7.697-9.098-2.906-15.1 6.219-7.791 17.265-10.492 26.652-11.812 10.056-1.414 20.481-1.759 30.628-1.891 9.731-.127 19.609.353 29.087 2.715 6.634 1.652 12.457 4.338 17.481 7.888-2.08-15.893-21.78-26.01-76.519-20.951-56.955 6.116-70.007 25.325-54.721 41.257C-32.642-45.371-24.761-.453 0 0"
         style="fill:#ad5842;fill-opacity:1;fill-rule:nonzero;stroke:none"
         transform="translate(1520.35 1573.048)"
         id="path2328" />
    </g>
    <path
       d="M0 0c-37.812 8.823-80.05 10.565-125.011 7.948C-75.388 1.064-31.83-2.591 0 0"
       style="fill:#ad5842;fill-opacity:1;fill-rule:nonzero;stroke:none"
       transform="translate(1647.727 1622.315)"
       id="path2332" />
    <path
       d="M0 0c-38.24-6.843-80.521-4.563-125.734 4.335C-69.984 5.769-26.2 4.713 0 0"
       style="fill:#ad5842;fill-opacity:1;fill-rule:nonzero;stroke:none"
       transform="translate(1646.084 1568.713)"
       id="path2334" />
    <path
       d="M0 0c-17.856-11.023-86.81-9.792-127.179.722C-75.229.502-49.378-2.192 0 0"
       style="fill:#ad5842;fill-opacity:1;fill-rule:nonzero;stroke:none"
       transform="translate(1641.749 1512.35)"
       id="path2336" />
    <path
       d="M0 0c-2.09 20.834-44.981 9.359-44.247-18.652l4.469-73.147c2.379-29.302 48.1-36.207 46.22 5.393z"
       style="fill:#ffd5c7;fill-opacity:1;fill-rule:nonzero;stroke:none"
       transform="translate(1522.716 1645.08)"
       id="path2338" />
    <g
       clip-path="url(#ad)"
       opacity=".3"
       id="g2342">
      <path
         d="M0 0c-2.351-5.778-3.177-12.719-3.627-17.812-1.923-21.754.893-44.222 8.681-64.653 2.488-6.527 7.512-19.942 16.61-18.886 5.277.612 8.78 5.87 10.408 10.442.15.423.255.86.386 1.289l.335-4.484c1.88-41.599-43.841-34.695-46.22-5.392l-4.469 73.147C-18.227-13.712-9.675-4.457 0 0"
         style="fill:#ad5842;fill-opacity:1;fill-rule:nonzero;stroke:none"
         transform="translate(1496.365 1652.777)"
         id="path2340" />
    </g>
    <g
       clip-path="url(#ae)"
       opacity=".3"
       id="g2346">
      <path
         d="M0 0c-.583-10.735-.234-21.522.951-32.26C2.626-47.436 5.888-62.3 9.623-77.084c1.986-7.863 3.999-16.747 9.193-23.213 5.278-6.569 12.567-5.931 18.936-1.139 6.061 4.561 8.855 11.217 10.109 18.317-.335-38.358-43.928-31.121-46.25-2.519l-4.469 73.147A25.438 25.438 0 0 0 0 0"
         style="fill:#ad5842;fill-opacity:1;fill-rule:nonzero;stroke:none"
         transform="translate(1481.327 1638.919)"
         id="path2344" />
    </g>
  </g>
</svg>
