<?xml version="1.0" standalone="no"?>
<!DOCTYPE svg PUBLIC "-//W3C//DTD SVG 20010904//EN"
 "http://www.w3.org/TR/2001/REC-SVG-20010904/DTD/svg10.dtd">
<svg version="1.0" xmlns="http://www.w3.org/2000/svg"
 width="700.000000pt" height="700.000000pt" viewBox="0 0 700.000000 700.000000"
 preserveAspectRatio="xMidYMid meet">
<metadata>
Created by potrace 1.14, written by Peter Selinger 2001-2017
</metadata>
<g transform="translate(0.000000,700.000000) scale(0.100000,-0.100000)"
fill="#000000" stroke="none">
<path d="M3690 6993 c-493 -38 -911 -219 -1236 -535 l-61 -60 -6 39 c-16 96
-26 273 -18 325 5 40 4 55 -3 51 -6 -4 -40 -28 -76 -54 -36 -26 -161 -108
-278 -183 -117 -74 -247 -162 -290 -194 -88 -68 -203 -185 -251 -255 -91 -134
-152 -338 -164 -547 l-2 -45 -71 106 c-85 127 -128 226 -145 334 l-12 79 -23
-67 c-44 -129 -58 -224 -58 -372 0 -149 19 -247 65 -337 11 -22 19 -41 17 -42
-2 -1 -16 -8 -32 -16 -53 -27 -134 -109 -186 -190 -119 -187 -209 -480 -241
-789 -18 -172 -6 -457 24 -601 26 -124 81 -274 129 -352 33 -54 44 -59 53 -25
15 48 87 157 141 210 196 197 482 180 686 -42 104 -112 159 -224 223 -455 78
-279 100 -437 91 -651 -3 -82 -8 -175 -11 -205 -6 -52 -6 -54 10 -35 27 33
125 243 155 335 43 127 63 259 55 354 -13 155 -56 265 -208 536 -204 365 -290
595 -318 860 -27 248 38 477 186 661 141 175 422 309 680 326 50 3 95 8 102
12 6 3 46 53 90 111 43 57 83 106 89 107 7 2 13 -26 17 -77 4 -45 9 -85 12
-90 3 -5 41 30 84 78 84 94 238 242 251 242 4 0 11 -26 15 -57 8 -63 20 -103
32 -103 5 0 67 55 138 121 276 257 444 353 640 366 l80 6 -50 -35 c-27 -19
-74 -66 -103 -104 -46 -60 -50 -69 -32 -72 10 -2 111 15 222 37 321 64 454 70
621 26 81 -21 197 -72 225 -98 13 -12 116 -145 229 -294 204 -271 205 -273
269 -304 79 -37 198 -132 362 -286 l123 -116 -7 39 c-15 84 -57 213 -93 285
-57 113 -115 193 -216 298 -82 86 -86 92 -45 67 197 -119 417 -187 664 -206
67 -5 124 -10 129 -10 4 0 7 4 7 9 0 14 -457 583 -591 736 -364 416 -676 654
-1007 769 -172 60 -273 77 -488 83 -215 6 -321 -3 -536 -47 -78 -16 -143 -29
-144 -27 -1 1 86 81 193 177 107 96 199 181 205 188 8 9 -18 12 -128 10 -77
-1 -159 -3 -184 -5z"/>
<path d="M4972 4790 c-91 -24 -128 -47 -187 -112 -64 -71 -107 -166 -113 -248
-4 -63 -3 -69 25 -100 27 -30 35 -33 79 -32 28 1 98 18 165 41 174 61 239 74
364 73 118 0 220 -23 340 -77 31 -13 62 -22 67 -19 17 11 2 172 -22 242 -28
79 -75 151 -116 174 -53 31 -257 69 -399 74 -109 4 -142 1 -203 -16z"/>
<path d="M3445 4749 c-121 -16 -227 -47 -325 -96 -79 -38 -110 -61 -181 -133
-77 -76 -93 -100 -143 -201 -46 -95 -103 -256 -93 -265 1 -2 36 19 77 45 180
114 324 180 497 228 89 25 114 28 268 28 133 0 187 -4 250 -19 104 -25 192
-24 242 1 52 26 86 92 79 150 -13 102 -98 203 -205 244 -48 19 -80 22 -226 25
-93 1 -201 -2 -240 -7z"/>
<path d="M4688 4225 c-3 -6 -16 -60 -28 -120 -31 -155 -39 -411 -16 -525 61
-298 223 -492 548 -655 166 -83 224 -121 243 -162 58 -121 -83 -398 -241 -473
-57 -27 -161 -36 -278 -25 l-75 7 1 70 c2 66 0 73 -26 94 -37 32 -72 31 -246
-11 -168 -40 -198 -42 -233 -15 -46 37 -61 150 -32 245 8 27 13 51 11 53 -7 7
-50 -62 -72 -117 -17 -39 -24 -76 -24 -125 0 -64 2 -70 34 -102 30 -30 40 -34
85 -34 28 0 108 11 177 25 199 40 249 32 246 -37 -1 -19 -11 -56 -22 -83 -11
-26 -18 -50 -16 -53 14 -13 230 -33 306 -28 240 16 371 110 500 363 76 149 76
240 -2 327 -34 39 -68 60 -196 122 -231 112 -328 183 -416 308 -125 176 -170
344 -204 756 -10 113 -20 200 -24 195z"/>
<path d="M5105 3947 c-121 -31 -208 -95 -254 -189 -52 -102 -38 -180 46 -259
60 -58 117 -82 172 -74 64 10 112 37 158 89 82 93 84 232 6 334 l-26 35 52 -6
c111 -13 218 -86 294 -202 36 -56 39 -58 32 -25 -24 116 -127 240 -230 279
-73 28 -182 35 -250 18z m100 -162 c14 -13 25 -36 25 -50 0 -33 -42 -75 -75
-75 -33 0 -75 42 -75 75 0 33 42 75 75 75 14 0 37 -11 50 -25z"/>
<path d="M3478 3907 c-161 -56 -276 -187 -278 -318 -1 -82 83 -189 184 -234
43 -20 59 -22 103 -15 127 21 225 123 240 251 8 71 -20 167 -65 219 l-36 42
55 -7 c136 -19 247 -90 329 -211 47 -70 52 -75 46 -44 -22 122 -141 267 -253
311 -89 34 -236 37 -325 6z m128 -147 c36 -14 53 -38 53 -75 0 -70 -77 -108
-132 -65 -48 38 -41 110 13 137 31 15 32 16 66 3z"/>
<path d="M1145 3277 c-63 -30 -128 -103 -154 -172 -29 -78 -44 -207 -33 -290
l8 -70 8 60 c22 171 63 273 140 351 155 154 350 55 505 -255 18 -34 30 -65 28
-67 -2 -3 -28 7 -58 21 -111 51 -245 58 -324 17 -47 -24 -96 -73 -120 -120
-16 -34 -44 -149 -45 -186 0 -29 15 -8 30 39 22 70 72 155 112 190 90 76 210
63 393 -42 63 -36 65 -38 77 -92 16 -74 15 -197 -1 -245 -19 -54 -74 -112
-126 -132 -73 -27 -187 -16 -275 28 -38 19 -70 31 -70 28 0 -4 23 -28 50 -54
92 -86 216 -124 316 -96 61 17 135 85 165 152 22 48 24 66 23 188 -1 165 -24
255 -111 430 -49 98 -69 127 -138 195 -102 102 -168 137 -275 142 -64 3 -83 0
-125 -20z"/>
<path d="M3635 2181 c-77 -35 -131 -112 -142 -200 -11 -95 51 -222 95 -195 10
7 23 37 30 72 12 55 16 61 32 52 10 -5 24 -27 31 -47 81 -253 348 -531 628
-654 343 -152 826 -138 972 28 47 54 69 108 109 268 36 145 65 220 98 258 29
33 41 21 44 -45 3 -57 5 -63 26 -66 35 -5 88 57 108 125 30 102 3 195 -76 267
-56 50 -85 47 -84 -9 0 -22 4 -66 9 -97 l8 -56 -49 -25 c-81 -41 -217 -85
-336 -109 -99 -20 -143 -23 -348 -23 -179 0 -261 4 -345 18 -252 42 -481 111
-685 208 l-109 52 26 66 c34 89 38 111 22 122 -18 11 -18 12 -64 -10z m337
-413 c447 -171 941 -201 1311 -80 48 15 87 27 87 26 0 -1 -7 -18 -15 -38 -8
-20 -33 -96 -54 -170 -21 -74 -50 -154 -64 -179 -35 -59 -101 -102 -190 -122
-96 -22 -349 -22 -472 0 -327 58 -567 226 -710 498 -23 45 -46 93 -50 106 -6
21 -5 23 11 16 11 -4 76 -30 146 -57z"/>
<path d="M4220 1011 c0 -29 44 -76 93 -99 199 -94 646 -89 837 8 41 21 90 73
90 96 0 11 -15 7 -59 -16 -236 -119 -632 -113 -923 14 -37 16 -38 16 -38 -3z"/>
</g>
</svg>
